<svg xmlns="http://www.w3.org/2000/svg" version="1.1" xmlns:xlink="http://www.w3.org/1999/xlink" width="512" height="512" x="0" y="0" viewBox="0 0 64 64" style="enable-background:new 0 0 512 512" xml:space="preserve" class=""><g><path d="M4 60h6c0-3.65.89-7.1 2.47-10.12l-5.2-3A27.755 27.755 0 0 0 4 60zM8.27 45.14l5.2 3c.85-1.34 1.85-2.58 2.97-3.7s2.36-2.12 3.7-2.97l-3-5.2a28.239 28.239 0 0 0-8.87 8.87zM31 32.02c-4.37.15-8.49 1.31-12.12 3.25l3 5.2c2.74-1.43 5.84-2.3 9.12-2.45zM46.86 36.27l-3 5.2c1.34.85 2.58 1.85 3.7 2.97s2.12 2.36 2.97 3.7l5.2-3a28.239 28.239 0 0 0-8.87-8.87zM51.53 49.88C53.11 52.9 54 56.35 54 60h6c0-4.74-1.18-9.21-3.27-13.12zM33 32.02v6c.5.02.99.07 1.47.12l.86-2.3c.45-1.2 1.62-2.01 2.9-2.01.27 0 .55.04.81.11 1.55.42 2.52 1.93 2.24 3.51l-.41 2.42c.42.19.83.38 1.24.59l3-5.2c-3.64-1.94-7.75-3.1-12.12-3.25z" fill="#ffec65" opacity="1" data-original="#000000" class=""></path><path d="M38.53 35.87c-.55-.15-1.12.14-1.32.68l-5.05 13.47c1.72.03 3.34.49 4.75 1.29l2.42-14.18a1.1 1.1 0 0 0-.8-1.25zM32 52c-4.42 0-8 3.58-8 8h16c0-4.42-3.58-8-8-8zM13 25c-.55 0-1 .45-1 1s.45 1 1 1h16c.55 0 1-.45 1-1s-.45-1-1-1zM9 27c.55 0 1-.45 1-1s-.45-1-1-1H4c-.55 0-1 .45-1 1s.45 1 1 1zM4 13h7c.55 0 1-.45 1-1s-.45-1-1-1H4c-.55 0-1 .45-1 1s.45 1 1 1zM4 20h19c.55 0 1-.45 1-1s-.45-1-1-1H4c-.55 0-1 .45-1 1s.45 1 1 1zM15 13h24.07C41.79 13 44 10.79 44 8.07s-2.21-4.92-4.93-4.92H37.2c-1.61 0-2.93 1.31-2.93 2.92S35.58 9 37.2 9H39c.55 0 1-.45 1-1s-.45-1-1-1h-1.8c-.51 0-.93-.42-.93-.93s.42-.92.93-.92h1.87c1.61 0 2.93 1.31 2.93 2.92S40.69 11 39.07 11H15c-.55 0-1 .45-1 1s.45 1 1 1zM51.2 16H53c.55 0 1-.45 1-1s-.45-1-1-1h-1.8c-.51 0-.93-.42-.93-.93s.42-.92.93-.92h1.87c1.61 0 2.93 1.31 2.93 2.92S54.69 18 53.07 18H27c-.55 0-1 .45-1 1s.45 1 1 1h26.07c2.72 0 4.93-2.21 4.93-4.93s-2.21-4.92-4.93-4.92H51.2c-1.61 0-2.93 1.31-2.93 2.92S49.58 16 51.2 16zM34 25c-.55 0-1 .45-1 1s.45 1 1 1h22.07c1.61 0 2.93 1.31 2.93 2.93s-1.31 2.92-2.93 2.92H54.2c-.51 0-.93-.42-.93-.92s.42-.93.93-.93H56c.55 0 1-.45 1-1s-.45-1-1-1h-1.8c-1.61 0-2.93 1.31-2.93 2.93s1.31 2.92 2.93 2.92h1.87c2.72 0 4.93-2.21 4.93-4.92S58.79 25 56.07 25z" fill="#ffec65" opacity="1" data-original="#000000" class=""></path></g></svg>