<svg xmlns="http://www.w3.org/2000/svg" version="1.1" xmlns:xlink="http://www.w3.org/1999/xlink" width="512" height="512" x="0" y="0" viewBox="0 0 256 256" style="enable-background:new 0 0 512 512" xml:space="preserve" class=""><g><path fill="#1f1acf" d="M105.021 218.029h-7.252a7 7 0 1 1 0-14h7.252c8.136 0 14.755-6.619 14.755-14.756 0-8.136-6.619-14.755-14.755-14.755H35.904a7 7 0 1 1 0-14h69.116c15.855 0 28.755 12.899 28.755 28.755 0 15.857-12.899 28.756-28.754 28.756z" opacity="1" data-original="#cbeff7" class=""></path><path fill="#416afe" d="M171.456 180.097h-7.252a7 7 0 1 1 0-14h7.252c8.136 0 14.755-6.619 14.755-14.755s-6.619-14.755-14.755-14.755H34.789a7 7 0 1 1 0-14h136.667c15.855 0 28.755 12.899 28.755 28.755s-12.899 28.755-28.755 28.755z" opacity="1" data-original="#9be5f9" class=""></path><circle cx="182.5" cy="60.5" r="44" fill="#87d147" opacity="1" data-original="#87d147" class=""></circle><path fill="#70d6f9" d="M122.211 53.471h7.252c3.483 0 6.683 1.22 9.21 3.246a43.705 43.705 0 0 1 3.668-14.19 28.564 28.564 0 0 0-12.877-3.056h-7.252a7 7 0 0 0-.001 14zM141.568 76.639c-2.668 3.828-7.096 6.343-12.105 6.343H35.347a7 7 0 1 0 0 14h94.116c7.606 0 14.526-2.974 19.674-7.813a43.972 43.972 0 0 1-7.569-12.53z" opacity="1" data-original="#70d6f9"></path><path fill="#edf4fc" d="M179.011 81.287a6.997 6.997 0 0 1-4.95-2.051l-14.442-14.443a7 7 0 0 1 9.9-9.898l9.492 9.493 15.912-15.913a7.004 7.004 0 0 1 9.9 0 7.002 7.002 0 0 1 0 9.9l-20.862 20.862a7.002 7.002 0 0 1-4.95 2.05z" opacity="1" data-original="#edf4fc"></path><path fill="#87d147" d="M255.925 122.2c-3.1-.6-5.6-3-6.2-6.1 0-.1-.3-.1-.3 0-.6 3.1-3.1 5.5-6.2 6.1-.1 0-.1.2 0 .3 3.1.6 5.6 3 6.2 6.1 0 .1.3.1.3 0 .6-3.1 3.1-5.5 6.2-6.1.1-.1.1-.3 0-.3z" opacity="1" data-original="#87d147" class=""></path><path fill="#70d6f9" d="M230.013 192.5h2.3v2.3c0 1.8 1.4 3.2 3.2 3.2 1.7 0 3.2-1.4 3.2-3.1v-2.4h2.3c1.8 0 3.2-1.4 3.2-3.2 0-1.7-1.4-3.2-3.1-3.2h-2.4v-2.3c0-1.8-1.4-3.2-3.2-3.2-1.7 0-3.2 1.4-3.2 3.1v2.4h-2.3c-1.8 0-3.2 1.4-3.2 3.2-.1 1.7 1.3 3.2 3.2 3.2-.1 0-.1 0 0 0z" opacity="1" data-original="#70d6f9"></path><circle cx="128.413" cy="13.9" r="3.4" fill="#f5c84c" opacity="1" data-original="#f5c84c"></circle><path fill="#87d147" d="M33.813 214.2c4.5-.8 8-4.3 8.9-8.7 0-.2.4-.2.4 0 .9 4.4 4.4 7.9 8.9 8.7.2 0 .2.3 0 .4-4.5.8-8 4.3-8.9 8.7 0 .2-.4.2-.4 0-.9-4.4-4.4-7.9-8.9-8.7-.2-.1-.2-.4 0-.4z" opacity="1" data-original="#87d147" class=""></path><path d="M105.021 220.529h-7.252c-5.238 0-9.5-4.262-9.5-9.5s4.262-9.5 9.5-9.5h7.252c6.758 0 12.255-5.498 12.255-12.256s-5.497-12.255-12.255-12.255H35.904c-5.238 0-9.5-4.262-9.5-9.5s4.262-9.5 9.5-9.5h69.116c17.234 0 31.255 14.021 31.255 31.255s-14.02 31.256-31.254 31.256zm-7.252-14c-2.481 0-4.5 2.019-4.5 4.5s2.019 4.5 4.5 4.5h7.252c14.477 0 26.255-11.778 26.255-26.256 0-14.477-11.778-26.255-26.255-26.255H35.904c-2.481 0-4.5 2.019-4.5 4.5s2.019 4.5 4.5 4.5h69.116c9.515 0 17.255 7.74 17.255 17.255s-7.74 17.256-17.255 17.256z" fill="#000000" opacity="1" data-original="#000000"></path><path d="M171.456 182.597h-7.252c-5.238 0-9.5-4.262-9.5-9.5s4.262-9.5 9.5-9.5h7.252c6.758 0 12.255-5.497 12.255-12.255s-5.497-12.255-12.255-12.255H34.789c-5.238 0-9.5-4.262-9.5-9.5s4.262-9.5 9.5-9.5h136.667c17.234 0 31.255 14.021 31.255 31.255s-14.021 31.255-31.255 31.255zm-7.252-14c-2.481 0-4.5 2.019-4.5 4.5s2.019 4.5 4.5 4.5h7.252c14.477 0 26.255-11.778 26.255-26.255s-11.778-26.255-26.255-26.255H34.789c-2.481 0-4.5 2.019-4.5 4.5s2.019 4.5 4.5 4.5h136.667c9.515 0 17.255 7.74 17.255 17.255s-7.74 17.255-17.255 17.255zM66 60.271a2.5 2.5 0 0 1-2.5-2.5V2.5a2.5 2.5 0 1 1 5 0v55.271a2.5 2.5 0 0 1-2.5 2.5z" fill="#000000" opacity="1" data-original="#000000"></path><path d="M66 20.462c-.64 0-1.279-.244-1.768-.732L53.376 8.873a2.499 2.499 0 1 1 3.535-3.535L66 14.427l9.089-9.089a2.499 2.499 0 1 1 3.535 3.535L67.768 19.729a2.491 2.491 0 0 1-1.768.733zM76.856 55.665c-.64 0-1.279-.244-1.768-.732L66 45.844l-9.089 9.089a2.499 2.499 0 1 1-3.535-3.535l10.856-10.856a2.498 2.498 0 0 1 3.535 0l10.856 10.856a2.498 2.498 0 0 1-1.767 4.267zM93.636 32.636H38.364a2.5 2.5 0 1 1 0-5h55.271a2.5 2.5 0 0 1 .001 5z" fill="#000000" opacity="1" data-original="#000000"></path><path d="M42.971 43.492a2.498 2.498 0 0 1-1.768-4.267l9.088-9.089-9.088-9.089a2.498 2.498 0 0 1 0-3.535 2.498 2.498 0 0 1 3.535 0l10.855 10.856a2.498 2.498 0 0 1 0 3.535L44.738 42.76a2.492 2.492 0 0 1-1.767.732zM89.029 43.492c-.64 0-1.279-.244-1.768-.732L76.406 31.903a2.498 2.498 0 0 1 0-3.535l10.855-10.856a2.498 2.498 0 0 1 3.535 0 2.498 2.498 0 0 1 0 3.535l-9.088 9.089 9.088 9.089a2.498 2.498 0 0 1-1.767 4.267zM180.426 256a2.5 2.5 0 0 1-2.5-2.5v-53.62a2.5 2.5 0 1 1 5 0v53.62a2.5 2.5 0 0 1-2.5 2.5z" fill="#000000" opacity="1" data-original="#000000"></path><path d="M180.426 217.38c-.64 0-1.279-.244-1.768-.732l-10.532-10.532a2.499 2.499 0 1 1 3.535-3.535l8.765 8.765 8.765-8.765a2.499 2.499 0 1 1 3.535 3.535l-10.532 10.532a2.496 2.496 0 0 1-1.768.732zM190.958 251.531c-.64 0-1.279-.244-1.768-.732l-8.765-8.764-8.765 8.764a2.499 2.499 0 1 1-3.535-3.535l10.532-10.531a2.498 2.498 0 0 1 3.535 0l10.532 10.531a2.498 2.498 0 0 1-1.766 4.267zM207.236 229.189h-53.621a2.5 2.5 0 1 1 0-5h53.621a2.5 2.5 0 1 1 0 5z" fill="#000000" opacity="1" data-original="#000000"></path><path d="M158.084 239.722a2.498 2.498 0 0 1-1.768-4.267l8.765-8.765-8.765-8.764a2.499 2.499 0 1 1 3.535-3.535l10.532 10.531a2.498 2.498 0 0 1 0 3.536l-10.532 10.532a2.49 2.49 0 0 1-1.767.732zM202.768 239.722c-.64 0-1.279-.244-1.768-.732l-10.532-10.532a2.498 2.498 0 0 1 0-3.536L201 214.391a2.499 2.499 0 1 1 3.535 3.535l-8.765 8.764 8.765 8.765a2.498 2.498 0 0 1-1.767 4.267zM182.5 107c-25.641 0-46.5-20.859-46.5-46.5S156.859 14 182.5 14 229 34.859 229 60.5 208.141 107 182.5 107zm0-88C159.617 19 141 37.617 141 60.5s18.617 41.5 41.5 41.5S224 83.383 224 60.5 205.383 19 182.5 19z" fill="#000000" opacity="1" data-original="#000000"></path><path d="M138.673 59.217a2.496 2.496 0 0 1-1.563-.55 12.109 12.109 0 0 0-7.646-2.696h-7.252c-5.238 0-9.5-4.262-9.5-9.5s4.262-9.5 9.5-9.5h7.252c4.908 0 9.619 1.118 14.001 3.323a2.5 2.5 0 0 1 1.157 3.256 41.184 41.184 0 0 0-3.457 13.379 2.501 2.501 0 0 1-2.492 2.288zm-16.462-17.246c-2.481 0-4.5 2.019-4.5 4.5s2.019 4.5 4.5 4.5h7.252c2.498 0 4.968.555 7.224 1.598a46.073 46.073 0 0 1 2.413-8.76 25.871 25.871 0 0 0-9.637-1.838zM129.463 99.481H35.347c-5.238 0-9.5-4.262-9.5-9.5s4.262-9.5 9.5-9.5h94.116c3.995 0 7.754-1.971 10.055-5.272a2.513 2.513 0 0 1 2.341-1.054 2.5 2.5 0 0 1 2.035 1.566 41.377 41.377 0 0 0 7.139 11.817 2.498 2.498 0 0 1-.184 3.451c-5.825 5.477-13.419 8.492-21.386 8.492zm-94.116-14c-2.481 0-4.5 2.019-4.5 4.5s2.019 4.5 4.5 4.5h94.116c5.913 0 11.584-1.98 16.201-5.618a46.268 46.268 0 0 1-4.814-7.692 17.243 17.243 0 0 1-11.387 4.311H35.347zM179.011 83.787a9.439 9.439 0 0 1-6.718-2.783l-14.442-14.443a9.434 9.434 0 0 1-2.782-6.718c0-2.537.988-4.923 2.783-6.718 3.704-3.703 9.73-3.702 13.435.002l7.725 7.725 14.145-14.145c3.705-3.703 9.73-3.702 13.436-.001 3.703 3.705 3.703 9.732.001 13.437l-20.863 20.862a9.446 9.446 0 0 1-6.72 2.782zm-14.443-28.44a4.486 4.486 0 0 0-3.182 1.315c-.851.85-1.318 1.979-1.318 3.182s.468 2.332 1.317 3.182l14.442 14.443c.851.85 1.98 1.318 3.183 1.318s2.332-.468 3.183-1.318l20.862-20.861a4.506 4.506 0 0 0-.001-6.365 4.508 4.508 0 0 0-6.364.001l-15.912 15.912c-.938.938-2.598.938-3.535 0l-9.492-9.493a4.486 4.486 0 0 0-3.183-1.316z" fill="#000000" opacity="1" data-original="#000000"></path></g></svg>