<svg xmlns="http://www.w3.org/2000/svg" xmlns:xlink="http://www.w3.org/1999/xlink" style="margin:auto;background:#69abed;display:block;z-index:1;position:relative" width="1920" height="1080" preserveAspectRatio="xMidYMid" viewBox="0 0 1920 1080">
<g transform="translate(960,540) scale(1,1) translate(-960,-540)"><g transform="translate(-100 388.1971330919954) rotate(0)">
  <animateTransform attributeName="transform" type="translate" keyTimes="0;1" values="-100 388.1971330919954;1920 388.1971330919954" dur="55.55555555555555s" repeatCount="indefinite" begin="-30.429446573261988s"></animateTransform>
  <path d="M84.717,33.597c0.791-2.503,1.186-5.138,1.186-7.773C85.903,11.594,74.308,0,60.079,0 c-9.881,0-18.445,5.534-22.793,13.702c-1.581-0.527-3.426-0.791-5.138-0.791c-9.486,0-17.128,7.642-17.128,17.128 c0,1.186,0.132,2.372,0.395,3.426C6.719,34.783,0,42.424,0,51.515C0,61.66,8.169,69.829,18.314,69.829h63.373 C91.831,69.829,100,61.66,100,51.515C99.868,42.556,93.281,35.046,84.717,33.597z" fill="#b6c9df" transform="scale(0.5)"></path>
</g><g transform="translate(-100 886.3876512886437) rotate(0)">
  <animateTransform attributeName="transform" type="translate" keyTimes="0;1" values="-100 886.3876512886437;1920 886.3876512886437" dur="55.55555555555555s" repeatCount="indefinite" begin="-12.009005069527005s"></animateTransform>
  <path d="M84.717,33.597c0.791-2.503,1.186-5.138,1.186-7.773C85.903,11.594,74.308,0,60.079,0 c-9.881,0-18.445,5.534-22.793,13.702c-1.581-0.527-3.426-0.791-5.138-0.791c-9.486,0-17.128,7.642-17.128,17.128 c0,1.186,0.132,2.372,0.395,3.426C6.719,34.783,0,42.424,0,51.515C0,61.66,8.169,69.829,18.314,69.829h63.373 C91.831,69.829,100,61.66,100,51.515C99.868,42.556,93.281,35.046,84.717,33.597z" fill="#b6c9df" transform="scale(0.5)"></path>
</g><g transform="translate(-100 564.7014132759298) rotate(0)">
  <animateTransform attributeName="transform" type="translate" keyTimes="0;1" values="-100 564.7014132759298;1920 564.7014132759298" dur="55.55555555555555s" repeatCount="indefinite" begin="-9.429997962459517s"></animateTransform>
  <path d="M84.717,33.597c0.791-2.503,1.186-5.138,1.186-7.773C85.903,11.594,74.308,0,60.079,0 c-9.881,0-18.445,5.534-22.793,13.702c-1.581-0.527-3.426-0.791-5.138-0.791c-9.486,0-17.128,7.642-17.128,17.128 c0,1.186,0.132,2.372,0.395,3.426C6.719,34.783,0,42.424,0,51.515C0,61.66,8.169,69.829,18.314,69.829h63.373 C91.831,69.829,100,61.66,100,51.515C99.868,42.556,93.281,35.046,84.717,33.597z" fill="#b6c9df" transform="scale(0.5)"></path>
</g><g transform="translate(-100 691.6892367999694) rotate(0)">
  <animateTransform attributeName="transform" type="translate" keyTimes="0;1" values="-100 691.6892367999694;1920 691.6892367999694" dur="55.55555555555555s" repeatCount="indefinite" begin="-52.736094648212635s"></animateTransform>
  <path d="M84.717,33.597c0.791-2.503,1.186-5.138,1.186-7.773C85.903,11.594,74.308,0,60.079,0 c-9.881,0-18.445,5.534-22.793,13.702c-1.581-0.527-3.426-0.791-5.138-0.791c-9.486,0-17.128,7.642-17.128,17.128 c0,1.186,0.132,2.372,0.395,3.426C6.719,34.783,0,42.424,0,51.515C0,61.66,8.169,69.829,18.314,69.829h63.373 C91.831,69.829,100,61.66,100,51.515C99.868,42.556,93.281,35.046,84.717,33.597z" fill="#b6c9df" transform="scale(0.5)"></path>
</g><g transform="translate(-100 629.0506597194794) rotate(0)">
  <animateTransform attributeName="transform" type="translate" keyTimes="0;1" values="-100 629.0506597194794;1920 629.0506597194794" dur="55.55555555555555s" repeatCount="indefinite" begin="-37.5900413550806s"></animateTransform>
  <path d="M84.717,33.597c0.791-2.503,1.186-5.138,1.186-7.773C85.903,11.594,74.308,0,60.079,0 c-9.881,0-18.445,5.534-22.793,13.702c-1.581-0.527-3.426-0.791-5.138-0.791c-9.486,0-17.128,7.642-17.128,17.128 c0,1.186,0.132,2.372,0.395,3.426C6.719,34.783,0,42.424,0,51.515C0,61.66,8.169,69.829,18.314,69.829h63.373 C91.831,69.829,100,61.66,100,51.515C99.868,42.556,93.281,35.046,84.717,33.597z" fill="#b6c9df" transform="scale(0.5)"></path>
</g><g transform="translate(-100 150.76476263505967) rotate(0)">
  <animateTransform attributeName="transform" type="translate" keyTimes="0;1" values="-100 150.76476263505967;1920 150.76476263505967" dur="55.55555555555555s" repeatCount="indefinite" begin="-19.16611386042392s"></animateTransform>
  <path d="M84.717,33.597c0.791-2.503,1.186-5.138,1.186-7.773C85.903,11.594,74.308,0,60.079,0 c-9.881,0-18.445,5.534-22.793,13.702c-1.581-0.527-3.426-0.791-5.138-0.791c-9.486,0-17.128,7.642-17.128,17.128 c0,1.186,0.132,2.372,0.395,3.426C6.719,34.783,0,42.424,0,51.515C0,61.66,8.169,69.829,18.314,69.829h63.373 C91.831,69.829,100,61.66,100,51.515C99.868,42.556,93.281,35.046,84.717,33.597z" fill="#b6c9df" transform="scale(0.5)"></path>
</g><g transform="translate(-100 491.6122581681322) rotate(0)">
  <animateTransform attributeName="transform" type="translate" keyTimes="0;1" values="-100 491.6122581681322;1920 491.6122581681322" dur="55.55555555555555s" repeatCount="indefinite" begin="-44.71412278965235s"></animateTransform>
  <path d="M84.717,33.597c0.791-2.503,1.186-5.138,1.186-7.773C85.903,11.594,74.308,0,60.079,0 c-9.881,0-18.445,5.534-22.793,13.702c-1.581-0.527-3.426-0.791-5.138-0.791c-9.486,0-17.128,7.642-17.128,17.128 c0,1.186,0.132,2.372,0.395,3.426C6.719,34.783,0,42.424,0,51.515C0,61.66,8.169,69.829,18.314,69.829h63.373 C91.831,69.829,100,61.66,100,51.515C99.868,42.556,93.281,35.046,84.717,33.597z" fill="#b6c9df" transform="scale(0.5)"></path>
</g><g transform="translate(-100 988.7144837217228) rotate(0)">
  <animateTransform attributeName="transform" type="translate" keyTimes="0;1" values="-100 988.7144837217228;1920 988.7144837217228" dur="55.55555555555555s" repeatCount="indefinite" begin="-10.861992829833687s"></animateTransform>
  <path d="M84.717,33.597c0.791-2.503,1.186-5.138,1.186-7.773C85.903,11.594,74.308,0,60.079,0 c-9.881,0-18.445,5.534-22.793,13.702c-1.581-0.527-3.426-0.791-5.138-0.791c-9.486,0-17.128,7.642-17.128,17.128 c0,1.186,0.132,2.372,0.395,3.426C6.719,34.783,0,42.424,0,51.515C0,61.66,8.169,69.829,18.314,69.829h63.373 C91.831,69.829,100,61.66,100,51.515C99.868,42.556,93.281,35.046,84.717,33.597z" fill="#b6c9df" transform="scale(0.5)"></path>
</g><g transform="translate(-100 108.83039123274534) rotate(0)">
  <animateTransform attributeName="transform" type="translate" keyTimes="0;1" values="-100 108.83039123274534;1920 108.83039123274534" dur="55.55555555555555s" repeatCount="indefinite" begin="-43.311234183858694s"></animateTransform>
  <path d="M84.717,33.597c0.791-2.503,1.186-5.138,1.186-7.773C85.903,11.594,74.308,0,60.079,0 c-9.881,0-18.445,5.534-22.793,13.702c-1.581-0.527-3.426-0.791-5.138-0.791c-9.486,0-17.128,7.642-17.128,17.128 c0,1.186,0.132,2.372,0.395,3.426C6.719,34.783,0,42.424,0,51.515C0,61.66,8.169,69.829,18.314,69.829h63.373 C91.831,69.829,100,61.66,100,51.515C99.868,42.556,93.281,35.046,84.717,33.597z" fill="#b6c9df" transform="scale(0.5)"></path>
</g><g transform="translate(-100 238.14072640450846) rotate(0)">
  <animateTransform attributeName="transform" type="translate" keyTimes="0;1" values="-100 238.14072640450846;1920 238.14072640450846" dur="55.55555555555555s" repeatCount="indefinite" begin="-55.55164092522404s"></animateTransform>
  <path d="M84.717,33.597c0.791-2.503,1.186-5.138,1.186-7.773C85.903,11.594,74.308,0,60.079,0 c-9.881,0-18.445,5.534-22.793,13.702c-1.581-0.527-3.426-0.791-5.138-0.791c-9.486,0-17.128,7.642-17.128,17.128 c0,1.186,0.132,2.372,0.395,3.426C6.719,34.783,0,42.424,0,51.515C0,61.66,8.169,69.829,18.314,69.829h63.373 C91.831,69.829,100,61.66,100,51.515C99.868,42.556,93.281,35.046,84.717,33.597z" fill="#b6c9df" transform="scale(0.5)"></path>
</g><g transform="translate(-100 451.0670235648203) rotate(0)">
  <animateTransform attributeName="transform" type="translate" keyTimes="0;1" values="-100 451.0670235648203;1920 451.0670235648203" dur="55.55555555555555s" repeatCount="indefinite" begin="-41.475954988130326s"></animateTransform>
  <path d="M84.717,33.597c0.791-2.503,1.186-5.138,1.186-7.773C85.903,11.594,74.308,0,60.079,0 c-9.881,0-18.445,5.534-22.793,13.702c-1.581-0.527-3.426-0.791-5.138-0.791c-9.486,0-17.128,7.642-17.128,17.128 c0,1.186,0.132,2.372,0.395,3.426C6.719,34.783,0,42.424,0,51.515C0,61.66,8.169,69.829,18.314,69.829h63.373 C91.831,69.829,100,61.66,100,51.515C99.868,42.556,93.281,35.046,84.717,33.597z" fill="#b6c9df" transform="scale(0.5)"></path>
</g><g transform="translate(-100 149.98095373350222) rotate(0)">
  <animateTransform attributeName="transform" type="translate" keyTimes="0;1" values="-100 149.98095373350222;1920 149.98095373350222" dur="27.777777777777775s" repeatCount="indefinite" begin="-51.85471455404693s"></animateTransform>
  <path d="M84.717,33.597c0.791-2.503,1.186-5.138,1.186-7.773C85.903,11.594,74.308,0,60.079,0 c-9.881,0-18.445,5.534-22.793,13.702c-1.581-0.527-3.426-0.791-5.138-0.791c-9.486,0-17.128,7.642-17.128,17.128 c0,1.186,0.132,2.372,0.395,3.426C6.719,34.783,0,42.424,0,51.515C0,61.66,8.169,69.829,18.314,69.829h63.373 C91.831,69.829,100,61.66,100,51.515C99.868,42.556,93.281,35.046,84.717,33.597z" fill="#39a3df" transform="scale(1)"></path>
</g><g transform="translate(-100 297.71578575138807) rotate(0)">
  <animateTransform attributeName="transform" type="translate" keyTimes="0;1" values="-100 297.71578575138807;1920 297.71578575138807" dur="27.777777777777775s" repeatCount="indefinite" begin="-2.087269837148094s"></animateTransform>
  <path d="M84.717,33.597c0.791-2.503,1.186-5.138,1.186-7.773C85.903,11.594,74.308,0,60.079,0 c-9.881,0-18.445,5.534-22.793,13.702c-1.581-0.527-3.426-0.791-5.138-0.791c-9.486,0-17.128,7.642-17.128,17.128 c0,1.186,0.132,2.372,0.395,3.426C6.719,34.783,0,42.424,0,51.515C0,61.66,8.169,69.829,18.314,69.829h63.373 C91.831,69.829,100,61.66,100,51.515C99.868,42.556,93.281,35.046,84.717,33.597z" fill="#39a3df" transform="scale(1)"></path>
</g><g transform="translate(-100 877.5248223984908) rotate(0)">
  <animateTransform attributeName="transform" type="translate" keyTimes="0;1" values="-100 877.5248223984908;1920 877.5248223984908" dur="27.777777777777775s" repeatCount="indefinite" begin="-14.248608813290645s"></animateTransform>
  <path d="M84.717,33.597c0.791-2.503,1.186-5.138,1.186-7.773C85.903,11.594,74.308,0,60.079,0 c-9.881,0-18.445,5.534-22.793,13.702c-1.581-0.527-3.426-0.791-5.138-0.791c-9.486,0-17.128,7.642-17.128,17.128 c0,1.186,0.132,2.372,0.395,3.426C6.719,34.783,0,42.424,0,51.515C0,61.66,8.169,69.829,18.314,69.829h63.373 C91.831,69.829,100,61.66,100,51.515C99.868,42.556,93.281,35.046,84.717,33.597z" fill="#39a3df" transform="scale(1)"></path>
</g><g transform="translate(-100 226.04174832982454) rotate(0)">
  <animateTransform attributeName="transform" type="translate" keyTimes="0;1" values="-100 226.04174832982454;1920 226.04174832982454" dur="27.777777777777775s" repeatCount="indefinite" begin="-23.204064882240335s"></animateTransform>
  <path d="M84.717,33.597c0.791-2.503,1.186-5.138,1.186-7.773C85.903,11.594,74.308,0,60.079,0 c-9.881,0-18.445,5.534-22.793,13.702c-1.581-0.527-3.426-0.791-5.138-0.791c-9.486,0-17.128,7.642-17.128,17.128 c0,1.186,0.132,2.372,0.395,3.426C6.719,34.783,0,42.424,0,51.515C0,61.66,8.169,69.829,18.314,69.829h63.373 C91.831,69.829,100,61.66,100,51.515C99.868,42.556,93.281,35.046,84.717,33.597z" fill="#39a3df" transform="scale(1)"></path>
</g><g transform="translate(-100 374.42744426066525) rotate(0)">
  <animateTransform attributeName="transform" type="translate" keyTimes="0;1" values="-100 374.42744426066525;1920 374.42744426066525" dur="27.777777777777775s" repeatCount="indefinite" begin="-21.984891529724504s"></animateTransform>
  <path d="M84.717,33.597c0.791-2.503,1.186-5.138,1.186-7.773C85.903,11.594,74.308,0,60.079,0 c-9.881,0-18.445,5.534-22.793,13.702c-1.581-0.527-3.426-0.791-5.138-0.791c-9.486,0-17.128,7.642-17.128,17.128 c0,1.186,0.132,2.372,0.395,3.426C6.719,34.783,0,42.424,0,51.515C0,61.66,8.169,69.829,18.314,69.829h63.373 C91.831,69.829,100,61.66,100,51.515C99.868,42.556,93.281,35.046,84.717,33.597z" fill="#39a3df" transform="scale(1)"></path>
</g><g transform="translate(-100 940.8102349298503) rotate(0)">
  <animateTransform attributeName="transform" type="translate" keyTimes="0;1" values="-100 940.8102349298503;1920 940.8102349298503" dur="27.777777777777775s" repeatCount="indefinite" begin="-37.887641462567125s"></animateTransform>
  <path d="M84.717,33.597c0.791-2.503,1.186-5.138,1.186-7.773C85.903,11.594,74.308,0,60.079,0 c-9.881,0-18.445,5.534-22.793,13.702c-1.581-0.527-3.426-0.791-5.138-0.791c-9.486,0-17.128,7.642-17.128,17.128 c0,1.186,0.132,2.372,0.395,3.426C6.719,34.783,0,42.424,0,51.515C0,61.66,8.169,69.829,18.314,69.829h63.373 C91.831,69.829,100,61.66,100,51.515C99.868,42.556,93.281,35.046,84.717,33.597z" fill="#39a3df" transform="scale(1)"></path>
</g><g transform="translate(-100 948.5399552835988) rotate(0)">
  <animateTransform attributeName="transform" type="translate" keyTimes="0;1" values="-100 948.5399552835988;1920 948.5399552835988" dur="27.777777777777775s" repeatCount="indefinite" begin="-31.608924356659625s"></animateTransform>
  <path d="M84.717,33.597c0.791-2.503,1.186-5.138,1.186-7.773C85.903,11.594,74.308,0,60.079,0 c-9.881,0-18.445,5.534-22.793,13.702c-1.581-0.527-3.426-0.791-5.138-0.791c-9.486,0-17.128,7.642-17.128,17.128 c0,1.186,0.132,2.372,0.395,3.426C6.719,34.783,0,42.424,0,51.515C0,61.66,8.169,69.829,18.314,69.829h63.373 C91.831,69.829,100,61.66,100,51.515C99.868,42.556,93.281,35.046,84.717,33.597z" fill="#39a3df" transform="scale(1)"></path>
</g><g transform="translate(-100 806.7375130022331) rotate(0)">
  <animateTransform attributeName="transform" type="translate" keyTimes="0;1" values="-100 806.7375130022331;1920 806.7375130022331" dur="27.777777777777775s" repeatCount="indefinite" begin="-41.429952776055934s"></animateTransform>
  <path d="M84.717,33.597c0.791-2.503,1.186-5.138,1.186-7.773C85.903,11.594,74.308,0,60.079,0 c-9.881,0-18.445,5.534-22.793,13.702c-1.581-0.527-3.426-0.791-5.138-0.791c-9.486,0-17.128,7.642-17.128,17.128 c0,1.186,0.132,2.372,0.395,3.426C6.719,34.783,0,42.424,0,51.515C0,61.66,8.169,69.829,18.314,69.829h63.373 C91.831,69.829,100,61.66,100,51.515C99.868,42.556,93.281,35.046,84.717,33.597z" fill="#39a3df" transform="scale(1)"></path>
</g><g transform="translate(-100 407.35917382006147) rotate(0)">
  <animateTransform attributeName="transform" type="translate" keyTimes="0;1" values="-100 407.35917382006147;1920 407.35917382006147" dur="27.777777777777775s" repeatCount="indefinite" begin="-43.81969748046896s"></animateTransform>
  <path d="M84.717,33.597c0.791-2.503,1.186-5.138,1.186-7.773C85.903,11.594,74.308,0,60.079,0 c-9.881,0-18.445,5.534-22.793,13.702c-1.581-0.527-3.426-0.791-5.138-0.791c-9.486,0-17.128,7.642-17.128,17.128 c0,1.186,0.132,2.372,0.395,3.426C6.719,34.783,0,42.424,0,51.515C0,61.66,8.169,69.829,18.314,69.829h63.373 C91.831,69.829,100,61.66,100,51.515C99.868,42.556,93.281,35.046,84.717,33.597z" fill="#39a3df" transform="scale(1)"></path>
</g><g transform="translate(-100 852.9282417017962) rotate(0)">
  <animateTransform attributeName="transform" type="translate" keyTimes="0;1" values="-100 852.9282417017962;1920 852.9282417017962" dur="27.777777777777775s" repeatCount="indefinite" begin="-1.0264523689335305s"></animateTransform>
  <path d="M84.717,33.597c0.791-2.503,1.186-5.138,1.186-7.773C85.903,11.594,74.308,0,60.079,0 c-9.881,0-18.445,5.534-22.793,13.702c-1.581-0.527-3.426-0.791-5.138-0.791c-9.486,0-17.128,7.642-17.128,17.128 c0,1.186,0.132,2.372,0.395,3.426C6.719,34.783,0,42.424,0,51.515C0,61.66,8.169,69.829,18.314,69.829h63.373 C91.831,69.829,100,61.66,100,51.515C99.868,42.556,93.281,35.046,84.717,33.597z" fill="#39a3df" transform="scale(1)"></path>
</g><g transform="translate(-100 457.3153701521201) rotate(0)">
  <animateTransform attributeName="transform" type="translate" keyTimes="0;1" values="-100 457.3153701521201;1920 457.3153701521201" dur="27.777777777777775s" repeatCount="indefinite" begin="-27.052667458609655s"></animateTransform>
  <path d="M84.717,33.597c0.791-2.503,1.186-5.138,1.186-7.773C85.903,11.594,74.308,0,60.079,0 c-9.881,0-18.445,5.534-22.793,13.702c-1.581-0.527-3.426-0.791-5.138-0.791c-9.486,0-17.128,7.642-17.128,17.128 c0,1.186,0.132,2.372,0.395,3.426C6.719,34.783,0,42.424,0,51.515C0,61.66,8.169,69.829,18.314,69.829h63.373 C91.831,69.829,100,61.66,100,51.515C99.868,42.556,93.281,35.046,84.717,33.597z" fill="#39a3df" transform="scale(1)"></path>
</g><g transform="translate(-100 413.89464935645105) rotate(0)">
  <animateTransform attributeName="transform" type="translate" keyTimes="0;1" values="-100 413.89464935645105;1920 413.89464935645105" dur="18.518518518518515s" repeatCount="indefinite" begin="-20.763803603903813s"></animateTransform>
  <path d="M84.717,33.597c0.791-2.503,1.186-5.138,1.186-7.773C85.903,11.594,74.308,0,60.079,0 c-9.881,0-18.445,5.534-22.793,13.702c-1.581-0.527-3.426-0.791-5.138-0.791c-9.486,0-17.128,7.642-17.128,17.128 c0,1.186,0.132,2.372,0.395,3.426C6.719,34.783,0,42.424,0,51.515C0,61.66,8.169,69.829,18.314,69.829h63.373 C91.831,69.829,100,61.66,100,51.515C99.868,42.556,93.281,35.046,84.717,33.597z" fill="#b6c9df" transform="scale(1.5)"></path>
</g><g transform="translate(-100 875.8084415262914) rotate(0)">
  <animateTransform attributeName="transform" type="translate" keyTimes="0;1" values="-100 875.8084415262914;1920 875.8084415262914" dur="18.518518518518515s" repeatCount="indefinite" begin="-3.3300573476316244s"></animateTransform>
  <path d="M84.717,33.597c0.791-2.503,1.186-5.138,1.186-7.773C85.903,11.594,74.308,0,60.079,0 c-9.881,0-18.445,5.534-22.793,13.702c-1.581-0.527-3.426-0.791-5.138-0.791c-9.486,0-17.128,7.642-17.128,17.128 c0,1.186,0.132,2.372,0.395,3.426C6.719,34.783,0,42.424,0,51.515C0,61.66,8.169,69.829,18.314,69.829h63.373 C91.831,69.829,100,61.66,100,51.515C99.868,42.556,93.281,35.046,84.717,33.597z" fill="#b6c9df" transform="scale(1.5)"></path>
</g><g transform="translate(-100 662.7025630636012) rotate(0)">
  <animateTransform attributeName="transform" type="translate" keyTimes="0;1" values="-100 662.7025630636012;1920 662.7025630636012" dur="18.518518518518515s" repeatCount="indefinite" begin="-41.519547457230715s"></animateTransform>
  <path d="M84.717,33.597c0.791-2.503,1.186-5.138,1.186-7.773C85.903,11.594,74.308,0,60.079,0 c-9.881,0-18.445,5.534-22.793,13.702c-1.581-0.527-3.426-0.791-5.138-0.791c-9.486,0-17.128,7.642-17.128,17.128 c0,1.186,0.132,2.372,0.395,3.426C6.719,34.783,0,42.424,0,51.515C0,61.66,8.169,69.829,18.314,69.829h63.373 C91.831,69.829,100,61.66,100,51.515C99.868,42.556,93.281,35.046,84.717,33.597z" fill="#b6c9df" transform="scale(1.5)"></path>
</g><g transform="translate(-100 766.4661395778786) rotate(0)">
  <animateTransform attributeName="transform" type="translate" keyTimes="0;1" values="-100 766.4661395778786;1920 766.4661395778786" dur="18.518518518518515s" repeatCount="indefinite" begin="-42.65060945450419s"></animateTransform>
  <path d="M84.717,33.597c0.791-2.503,1.186-5.138,1.186-7.773C85.903,11.594,74.308,0,60.079,0 c-9.881,0-18.445,5.534-22.793,13.702c-1.581-0.527-3.426-0.791-5.138-0.791c-9.486,0-17.128,7.642-17.128,17.128 c0,1.186,0.132,2.372,0.395,3.426C6.719,34.783,0,42.424,0,51.515C0,61.66,8.169,69.829,18.314,69.829h63.373 C91.831,69.829,100,61.66,100,51.515C99.868,42.556,93.281,35.046,84.717,33.597z" fill="#b6c9df" transform="scale(1.5)"></path>
</g><g transform="translate(-100 582.8021605043992) rotate(0)">
  <animateTransform attributeName="transform" type="translate" keyTimes="0;1" values="-100 582.8021605043992;1920 582.8021605043992" dur="18.518518518518515s" repeatCount="indefinite" begin="-22.259419141952616s"></animateTransform>
  <path d="M84.717,33.597c0.791-2.503,1.186-5.138,1.186-7.773C85.903,11.594,74.308,0,60.079,0 c-9.881,0-18.445,5.534-22.793,13.702c-1.581-0.527-3.426-0.791-5.138-0.791c-9.486,0-17.128,7.642-17.128,17.128 c0,1.186,0.132,2.372,0.395,3.426C6.719,34.783,0,42.424,0,51.515C0,61.66,8.169,69.829,18.314,69.829h63.373 C91.831,69.829,100,61.66,100,51.515C99.868,42.556,93.281,35.046,84.717,33.597z" fill="#b6c9df" transform="scale(1.5)"></path>
</g><g transform="translate(-100 636.8210380847734) rotate(0)">
  <animateTransform attributeName="transform" type="translate" keyTimes="0;1" values="-100 636.8210380847734;1920 636.8210380847734" dur="18.518518518518515s" repeatCount="indefinite" begin="-21.28443035718392s"></animateTransform>
  <path d="M84.717,33.597c0.791-2.503,1.186-5.138,1.186-7.773C85.903,11.594,74.308,0,60.079,0 c-9.881,0-18.445,5.534-22.793,13.702c-1.581-0.527-3.426-0.791-5.138-0.791c-9.486,0-17.128,7.642-17.128,17.128 c0,1.186,0.132,2.372,0.395,3.426C6.719,34.783,0,42.424,0,51.515C0,61.66,8.169,69.829,18.314,69.829h63.373 C91.831,69.829,100,61.66,100,51.515C99.868,42.556,93.281,35.046,84.717,33.597z" fill="#b6c9df" transform="scale(1.5)"></path>
</g><g transform="translate(-100 963.8025796494829) rotate(0)">
  <animateTransform attributeName="transform" type="translate" keyTimes="0;1" values="-100 963.8025796494829;1920 963.8025796494829" dur="18.518518518518515s" repeatCount="indefinite" begin="-10.695029493835223s"></animateTransform>
  <path d="M84.717,33.597c0.791-2.503,1.186-5.138,1.186-7.773C85.903,11.594,74.308,0,60.079,0 c-9.881,0-18.445,5.534-22.793,13.702c-1.581-0.527-3.426-0.791-5.138-0.791c-9.486,0-17.128,7.642-17.128,17.128 c0,1.186,0.132,2.372,0.395,3.426C6.719,34.783,0,42.424,0,51.515C0,61.66,8.169,69.829,18.314,69.829h63.373 C91.831,69.829,100,61.66,100,51.515C99.868,42.556,93.281,35.046,84.717,33.597z" fill="#b6c9df" transform="scale(1.5)"></path>
</g><g transform="translate(-100 115.09850293907598) rotate(0)">
  <animateTransform attributeName="transform" type="translate" keyTimes="0;1" values="-100 115.09850293907598;1920 115.09850293907598" dur="18.518518518518515s" repeatCount="indefinite" begin="-25.80204056933397s"></animateTransform>
  <path d="M84.717,33.597c0.791-2.503,1.186-5.138,1.186-7.773C85.903,11.594,74.308,0,60.079,0 c-9.881,0-18.445,5.534-22.793,13.702c-1.581-0.527-3.426-0.791-5.138-0.791c-9.486,0-17.128,7.642-17.128,17.128 c0,1.186,0.132,2.372,0.395,3.426C6.719,34.783,0,42.424,0,51.515C0,61.66,8.169,69.829,18.314,69.829h63.373 C91.831,69.829,100,61.66,100,51.515C99.868,42.556,93.281,35.046,84.717,33.597z" fill="#b6c9df" transform="scale(1.5)"></path>
</g><g transform="translate(-100 852.7480010581091) rotate(0)">
  <animateTransform attributeName="transform" type="translate" keyTimes="0;1" values="-100 852.7480010581091;1920 852.7480010581091" dur="18.518518518518515s" repeatCount="indefinite" begin="-27.798778151849966s"></animateTransform>
  <path d="M84.717,33.597c0.791-2.503,1.186-5.138,1.186-7.773C85.903,11.594,74.308,0,60.079,0 c-9.881,0-18.445,5.534-22.793,13.702c-1.581-0.527-3.426-0.791-5.138-0.791c-9.486,0-17.128,7.642-17.128,17.128 c0,1.186,0.132,2.372,0.395,3.426C6.719,34.783,0,42.424,0,51.515C0,61.66,8.169,69.829,18.314,69.829h63.373 C91.831,69.829,100,61.66,100,51.515C99.868,42.556,93.281,35.046,84.717,33.597z" fill="#b6c9df" transform="scale(1.5)"></path>
</g><g transform="translate(-100 537.1074720463297) rotate(0)">
  <animateTransform attributeName="transform" type="translate" keyTimes="0;1" values="-100 537.1074720463297;1920 537.1074720463297" dur="18.518518518518515s" repeatCount="indefinite" begin="-4.069680771433128s"></animateTransform>
  <path d="M84.717,33.597c0.791-2.503,1.186-5.138,1.186-7.773C85.903,11.594,74.308,0,60.079,0 c-9.881,0-18.445,5.534-22.793,13.702c-1.581-0.527-3.426-0.791-5.138-0.791c-9.486,0-17.128,7.642-17.128,17.128 c0,1.186,0.132,2.372,0.395,3.426C6.719,34.783,0,42.424,0,51.515C0,61.66,8.169,69.829,18.314,69.829h63.373 C91.831,69.829,100,61.66,100,51.515C99.868,42.556,93.281,35.046,84.717,33.597z" fill="#b6c9df" transform="scale(1.5)"></path>
</g><g transform="translate(-100 67.11706149930737) rotate(0)">
  <animateTransform attributeName="transform" type="translate" keyTimes="0;1" values="-100 67.11706149930737;1920 67.11706149930737" dur="18.518518518518515s" repeatCount="indefinite" begin="-50.360755468358825s"></animateTransform>
  <path d="M84.717,33.597c0.791-2.503,1.186-5.138,1.186-7.773C85.903,11.594,74.308,0,60.079,0 c-9.881,0-18.445,5.534-22.793,13.702c-1.581-0.527-3.426-0.791-5.138-0.791c-9.486,0-17.128,7.642-17.128,17.128 c0,1.186,0.132,2.372,0.395,3.426C6.719,34.783,0,42.424,0,51.515C0,61.66,8.169,69.829,18.314,69.829h63.373 C91.831,69.829,100,61.66,100,51.515C99.868,42.556,93.281,35.046,84.717,33.597z" fill="#b6c9df" transform="scale(1.5)"></path>
</g><g transform="translate(-100 726.452077488515) rotate(0)">
  <animateTransform attributeName="transform" type="translate" keyTimes="0;1" values="-100 726.452077488515;1920 726.452077488515" dur="13.888888888888888s" repeatCount="indefinite" begin="-31.810896740586873s"></animateTransform>
  <path d="M84.717,33.597c0.791-2.503,1.186-5.138,1.186-7.773C85.903,11.594,74.308,0,60.079,0 c-9.881,0-18.445,5.534-22.793,13.702c-1.581-0.527-3.426-0.791-5.138-0.791c-9.486,0-17.128,7.642-17.128,17.128 c0,1.186,0.132,2.372,0.395,3.426C6.719,34.783,0,42.424,0,51.515C0,61.66,8.169,69.829,18.314,69.829h63.373 C91.831,69.829,100,61.66,100,51.515C99.868,42.556,93.281,35.046,84.717,33.597z" fill="#39a3df" transform="scale(2)"></path>
</g><g transform="translate(-100 330.7591216207261) rotate(0)">
  <animateTransform attributeName="transform" type="translate" keyTimes="0;1" values="-100 330.7591216207261;1920 330.7591216207261" dur="13.888888888888888s" repeatCount="indefinite" begin="-47.77085435072304s"></animateTransform>
  <path d="M84.717,33.597c0.791-2.503,1.186-5.138,1.186-7.773C85.903,11.594,74.308,0,60.079,0 c-9.881,0-18.445,5.534-22.793,13.702c-1.581-0.527-3.426-0.791-5.138-0.791c-9.486,0-17.128,7.642-17.128,17.128 c0,1.186,0.132,2.372,0.395,3.426C6.719,34.783,0,42.424,0,51.515C0,61.66,8.169,69.829,18.314,69.829h63.373 C91.831,69.829,100,61.66,100,51.515C99.868,42.556,93.281,35.046,84.717,33.597z" fill="#39a3df" transform="scale(2)"></path>
</g><g transform="translate(-100 174.36623596561074) rotate(0)">
  <animateTransform attributeName="transform" type="translate" keyTimes="0;1" values="-100 174.36623596561074;1920 174.36623596561074" dur="13.888888888888888s" repeatCount="indefinite" begin="-27.832931411334258s"></animateTransform>
  <path d="M84.717,33.597c0.791-2.503,1.186-5.138,1.186-7.773C85.903,11.594,74.308,0,60.079,0 c-9.881,0-18.445,5.534-22.793,13.702c-1.581-0.527-3.426-0.791-5.138-0.791c-9.486,0-17.128,7.642-17.128,17.128 c0,1.186,0.132,2.372,0.395,3.426C6.719,34.783,0,42.424,0,51.515C0,61.66,8.169,69.829,18.314,69.829h63.373 C91.831,69.829,100,61.66,100,51.515C99.868,42.556,93.281,35.046,84.717,33.597z" fill="#39a3df" transform="scale(2)"></path>
</g><g transform="translate(-100 715.3280964814103) rotate(0)">
  <animateTransform attributeName="transform" type="translate" keyTimes="0;1" values="-100 715.3280964814103;1920 715.3280964814103" dur="13.888888888888888s" repeatCount="indefinite" begin="-38.42339491498715s"></animateTransform>
  <path d="M84.717,33.597c0.791-2.503,1.186-5.138,1.186-7.773C85.903,11.594,74.308,0,60.079,0 c-9.881,0-18.445,5.534-22.793,13.702c-1.581-0.527-3.426-0.791-5.138-0.791c-9.486,0-17.128,7.642-17.128,17.128 c0,1.186,0.132,2.372,0.395,3.426C6.719,34.783,0,42.424,0,51.515C0,61.66,8.169,69.829,18.314,69.829h63.373 C91.831,69.829,100,61.66,100,51.515C99.868,42.556,93.281,35.046,84.717,33.597z" fill="#39a3df" transform="scale(2)"></path>
</g><g transform="translate(-100 16.362025975150345) rotate(0)">
  <animateTransform attributeName="transform" type="translate" keyTimes="0;1" values="-100 16.362025975150345;1920 16.362025975150345" dur="13.888888888888888s" repeatCount="indefinite" begin="-46.306688023946485s"></animateTransform>
  <path d="M84.717,33.597c0.791-2.503,1.186-5.138,1.186-7.773C85.903,11.594,74.308,0,60.079,0 c-9.881,0-18.445,5.534-22.793,13.702c-1.581-0.527-3.426-0.791-5.138-0.791c-9.486,0-17.128,7.642-17.128,17.128 c0,1.186,0.132,2.372,0.395,3.426C6.719,34.783,0,42.424,0,51.515C0,61.66,8.169,69.829,18.314,69.829h63.373 C91.831,69.829,100,61.66,100,51.515C99.868,42.556,93.281,35.046,84.717,33.597z" fill="#39a3df" transform="scale(2)"></path>
</g><g transform="translate(-100 945.6411104456109) rotate(0)">
  <animateTransform attributeName="transform" type="translate" keyTimes="0;1" values="-100 945.6411104456109;1920 945.6411104456109" dur="13.888888888888888s" repeatCount="indefinite" begin="-28.510575725748676s"></animateTransform>
  <path d="M84.717,33.597c0.791-2.503,1.186-5.138,1.186-7.773C85.903,11.594,74.308,0,60.079,0 c-9.881,0-18.445,5.534-22.793,13.702c-1.581-0.527-3.426-0.791-5.138-0.791c-9.486,0-17.128,7.642-17.128,17.128 c0,1.186,0.132,2.372,0.395,3.426C6.719,34.783,0,42.424,0,51.515C0,61.66,8.169,69.829,18.314,69.829h63.373 C91.831,69.829,100,61.66,100,51.515C99.868,42.556,93.281,35.046,84.717,33.597z" fill="#39a3df" transform="scale(2)"></path>
</g><g transform="translate(-100 855.5547618295411) rotate(0)">
  <animateTransform attributeName="transform" type="translate" keyTimes="0;1" values="-100 855.5547618295411;1920 855.5547618295411" dur="13.888888888888888s" repeatCount="indefinite" begin="-16.589677991108097s"></animateTransform>
  <path d="M84.717,33.597c0.791-2.503,1.186-5.138,1.186-7.773C85.903,11.594,74.308,0,60.079,0 c-9.881,0-18.445,5.534-22.793,13.702c-1.581-0.527-3.426-0.791-5.138-0.791c-9.486,0-17.128,7.642-17.128,17.128 c0,1.186,0.132,2.372,0.395,3.426C6.719,34.783,0,42.424,0,51.515C0,61.66,8.169,69.829,18.314,69.829h63.373 C91.831,69.829,100,61.66,100,51.515C99.868,42.556,93.281,35.046,84.717,33.597z" fill="#39a3df" transform="scale(2)"></path>
</g><g transform="translate(-100 786.5715303336218) rotate(0)">
  <animateTransform attributeName="transform" type="translate" keyTimes="0;1" values="-100 786.5715303336218;1920 786.5715303336218" dur="13.888888888888888s" repeatCount="indefinite" begin="-15.898975362008459s"></animateTransform>
  <path d="M84.717,33.597c0.791-2.503,1.186-5.138,1.186-7.773C85.903,11.594,74.308,0,60.079,0 c-9.881,0-18.445,5.534-22.793,13.702c-1.581-0.527-3.426-0.791-5.138-0.791c-9.486,0-17.128,7.642-17.128,17.128 c0,1.186,0.132,2.372,0.395,3.426C6.719,34.783,0,42.424,0,51.515C0,61.66,8.169,69.829,18.314,69.829h63.373 C91.831,69.829,100,61.66,100,51.515C99.868,42.556,93.281,35.046,84.717,33.597z" fill="#39a3df" transform="scale(2)"></path>
</g><g transform="translate(-100 837.8333498639774) rotate(0)">
  <animateTransform attributeName="transform" type="translate" keyTimes="0;1" values="-100 837.8333498639774;1920 837.8333498639774" dur="13.888888888888888s" repeatCount="indefinite" begin="-29.0995130600027s"></animateTransform>
  <path d="M84.717,33.597c0.791-2.503,1.186-5.138,1.186-7.773C85.903,11.594,74.308,0,60.079,0 c-9.881,0-18.445,5.534-22.793,13.702c-1.581-0.527-3.426-0.791-5.138-0.791c-9.486,0-17.128,7.642-17.128,17.128 c0,1.186,0.132,2.372,0.395,3.426C6.719,34.783,0,42.424,0,51.515C0,61.66,8.169,69.829,18.314,69.829h63.373 C91.831,69.829,100,61.66,100,51.515C99.868,42.556,93.281,35.046,84.717,33.597z" fill="#39a3df" transform="scale(2)"></path>
</g><g transform="translate(-100 73.93679968402823) rotate(0)">
  <animateTransform attributeName="transform" type="translate" keyTimes="0;1" values="-100 73.93679968402823;1920 73.93679968402823" dur="13.888888888888888s" repeatCount="indefinite" begin="-20.925384808709225s"></animateTransform>
  <path d="M84.717,33.597c0.791-2.503,1.186-5.138,1.186-7.773C85.903,11.594,74.308,0,60.079,0 c-9.881,0-18.445,5.534-22.793,13.702c-1.581-0.527-3.426-0.791-5.138-0.791c-9.486,0-17.128,7.642-17.128,17.128 c0,1.186,0.132,2.372,0.395,3.426C6.719,34.783,0,42.424,0,51.515C0,61.66,8.169,69.829,18.314,69.829h63.373 C91.831,69.829,100,61.66,100,51.515C99.868,42.556,93.281,35.046,84.717,33.597z" fill="#39a3df" transform="scale(2)"></path>
</g><g transform="translate(-100 489.9439359363953) rotate(0)">
  <animateTransform attributeName="transform" type="translate" keyTimes="0;1" values="-100 489.9439359363953;1920 489.9439359363953" dur="13.888888888888888s" repeatCount="indefinite" begin="-21.28918740283081s"></animateTransform>
  <path d="M84.717,33.597c0.791-2.503,1.186-5.138,1.186-7.773C85.903,11.594,74.308,0,60.079,0 c-9.881,0-18.445,5.534-22.793,13.702c-1.581-0.527-3.426-0.791-5.138-0.791c-9.486,0-17.128,7.642-17.128,17.128 c0,1.186,0.132,2.372,0.395,3.426C6.719,34.783,0,42.424,0,51.515C0,61.66,8.169,69.829,18.314,69.829h63.373 C91.831,69.829,100,61.66,100,51.515C99.868,42.556,93.281,35.046,84.717,33.597z" fill="#39a3df" transform="scale(2)"></path>
</g><g transform="translate(-100 98.9590656287861) rotate(0)">
  <animateTransform attributeName="transform" type="translate" keyTimes="0;1" values="-100 98.9590656287861;1920 98.9590656287861" dur="13.888888888888888s" repeatCount="indefinite" begin="-55.105547149515736s"></animateTransform>
  <path d="M84.717,33.597c0.791-2.503,1.186-5.138,1.186-7.773C85.903,11.594,74.308,0,60.079,0 c-9.881,0-18.445,5.534-22.793,13.702c-1.581-0.527-3.426-0.791-5.138-0.791c-9.486,0-17.128,7.642-17.128,17.128 c0,1.186,0.132,2.372,0.395,3.426C6.719,34.783,0,42.424,0,51.515C0,61.66,8.169,69.829,18.314,69.829h63.373 C91.831,69.829,100,61.66,100,51.515C99.868,42.556,93.281,35.046,84.717,33.597z" fill="#39a3df" transform="scale(2)"></path>
</g></g>
</svg>