<svg xmlns="http://www.w3.org/2000/svg" version="1.1" xmlns:xlink="http://www.w3.org/1999/xlink" width="512" height="512" x="0" y="0" viewBox="0 0 512 512" style="enable-background:new 0 0 512 512" xml:space="preserve" class=""><g><g fill-rule="evenodd" clip-rule="evenodd"><path fill="#ffd747" d="M487 366.5c-18.5 44.2-61.6 70.8-106.8 70.8-46.7 0-88.9-28.1-106.7-71.6-11.7-28.4-11.6-59.7.3-88.1 24.8-59.1 92.6-86.1 151.1-61.9 28.5 11.9 50.7 34 62.4 62.6s11.5 59.9-.3 88.2z" opacity="1" data-original="#ffd747" class=""></path><path fill="#2061ab" d="M125.1 478.5C58.9 456.8 19.2 402.3 16.2 329.1c-.9-20.5 2-41.1 7.8-61.5 12.6-6 18.8-.7 29.9 6.4 24.3 15.4 33.6 15.4 57.8 0 19.2-12.2 21.4-12.2 40.6 0 24.2 15.4 33.5 15.4 57.8 0 23.3-14.8 23.6-10.1 46.4 3.5-11.1 30.6-10.4 63.9 2 94.2 10.2 25 27.5 45.7 49.7 60.1-42.2 49.3-116.8 68.4-183.1 46.7z" opacity="1" data-original="#30c3fe" class=""></path><path fill="#5eaaff" d="M159.2 55.4c7.7-9.1 15.2-17.9 22.1-26.3 6.9 8.3 14.2 17 21.9 26 36.8 43.4 82.2 97 111.6 153.4-21.6 12.4-39.8 30.9-51.7 54.3-27.4-16-32.8-20.5-61.5-2.3-19.2 12.2-21.4 12.2-40.6 0-24.3-15.4-33.6-15.4-57.8 0-19.2 12.2-21.4 12.2-40.6 0C52 253.8 43 248 30 249.1 55.9 177.2 113.7 109 159.2 55.4z" opacity="1" data-original="#dce1eb" class=""></path><path d="M502.2 272.4c-13.3-32.5-38.6-57.8-71-71.3-33.9-14.1-70.5-13-102 .3-30.3-58-76.4-112.5-113.8-156.6-10-11.8-19.4-22.9-27.9-33.3-3.1-4-9.3-3.8-12.4.1C166.5 21.9 157 33.1 147 45c-32.8 38.7-70 82.6-99 130.5C13.8 232-1.8 282.4.2 329.8c3.3 77.1 45.6 139.6 119.9 163.9 35.3 11.5 74.2 12.9 110.2 3.6 37.3-9.5 69.1-29.3 92.3-57.3 18.3 8.8 37.2 13.3 57.6 13.3 51.5 0 100.5-30.3 121.6-80.6 13.4-32.3 13.6-67.9.4-100.3zm-343-217c7.7-9.1 15.2-17.9 22.1-26.3 6.9 8.3 14.2 17 21.9 26 36.8 43.4 82.2 97 111.6 153.4-21.6 12.4-39.8 30.9-51.7 54.3-27.4-16-32.8-20.5-61.5-2.3-19.2 12.2-21.4 12.2-40.6 0-24.3-15.4-33.6-15.4-57.8 0-19.2 12.2-21.4 12.2-40.6 0C52 253.8 43 248 30 249.1 55.9 177.2 113.7 109 159.2 55.4zm-34.1 423.1C58.9 456.8 19.2 402.3 16.2 329.1c-.9-20.5 2-41.1 7.8-61.5 12.6-6 18.8-.7 29.9 6.4 24.3 15.4 33.6 15.4 57.8 0 19.2-12.2 21.4-12.2 40.6 0 24.2 15.4 33.5 15.4 57.8 0 23.3-14.8 23.6-10.1 46.4 3.5-11.1 30.6-10.4 63.9 2 94.2 10.2 25 27.5 45.7 49.7 60.1-42.2 49.3-116.8 68.4-183.1 46.7zm361.9-112c-18.5 44.2-61.6 70.8-106.8 70.8-46.7 0-88.9-28.1-106.7-71.6-11.7-28.4-11.6-59.7.3-88.1 24.8-59.1 92.6-86.1 151.1-61.9 28.5 11.9 50.7 34 62.4 62.6s11.5 59.9-.3 88.2zm-56.3-115.4-86.8 150c-4.9 9.1-19.1 1.2-13.8-8l86.8-150c5.2-9.1 19.2-1 13.8 8zM376 293.2c4.1-15.3-5-30.9-20.3-35s-31 5.1-35.1 20.3c-2 7.4-1 15.1 2.9 21.7 12.8 21.9 45.9 17.6 52.5-7zm-38.7-1.1c-1.7-2.9-2.1-6.3-1.3-9.5 1.9-6.7 8.8-10.9 15.5-9 6.8 1.8 10.7 8.6 9 15.4-2.9 10.8-17.4 12.9-23.2 3.1zm47.4 58.9c-2 7.4-1 15.1 2.9 21.7 12.8 22.1 46 17.5 52.6-6.9 2-7.4.9-15.1-2.9-21.7-12.9-22.2-46-17.4-52.6 6.9zm40 10.6c-2.9 10.8-17.5 12.9-23.2 3.1-1.7-2.9-2.1-6.3-1.3-9.5 4.4-16 28.9-9.3 24.5 6.4z" fill="#000000" opacity="1" data-original="#000000" class=""></path><g fill="#dce1eb"><path d="M424.7 361.6c-2.9 10.8-17.5 12.9-23.2 3.1-1.7-2.9-2.1-6.3-1.3-9.5 4.4-16 28.9-9.3 24.5 6.4zM337.3 292.1c-1.7-2.9-2.1-6.3-1.3-9.5 1.9-6.7 8.8-10.9 15.5-9 6.8 1.8 10.7 8.6 9 15.4-2.9 10.8-17.4 12.9-23.2 3.1z" fill="#5eaaff" opacity="1" data-original="#dce1eb" class=""></path></g></g></g></svg>