<svg xmlns="http://www.w3.org/2000/svg" version="1.1" xmlns:xlink="http://www.w3.org/1999/xlink" width="512" height="512" x="0" y="0" viewBox="0 0 256 256" style="enable-background:new 0 0 512 512" xml:space="preserve" class=""><g><path fill="#f79219" d="M80.414 142.828a4.972 4.972 0 0 1-3.105-1.084L23.896 99.351l53.412-42.394a4.999 4.999 0 1 1 6.216 7.832L39.982 99.351l43.543 34.562a5 5 0 0 1-3.111 8.915z" opacity="1" data-original="#ffa91a" class=""></path><g fill="#ef7816"><path d="m83.525 133.912-16.429-13.04v12.767l10.212 8.105a4.976 4.976 0 0 0 3.105 1.084 4.994 4.994 0 0 0 3.324-1.272v-7.438c-.074-.066-.133-.143-.212-.206zM83.525 64.789c.079-.063.138-.14.212-.206v-7.43c-1.782-1.593-4.496-1.73-6.429-.195l-10.212 8.105V77.83z" fill="#414042" opacity="0.9411764705882353" data-original="#ef7816" class=""></path></g><path fill="#478cf7" d="M227.618 171.952H134.97a4.563 4.563 0 0 1 0-9.126h92.648c4.277 0 7.757-3.48 7.757-7.757s-3.48-7.757-7.757-7.757-7.757 3.48-7.757 7.757a4.563 4.563 0 0 1-9.126 0c0-9.309 7.573-16.882 16.882-16.882s16.882 7.573 16.882 16.882-7.572 16.883-16.881 16.883zM227.618 244.5c-9.309 0-16.882-7.573-16.882-16.882a4.563 4.563 0 0 1 9.126 0c0 4.277 3.48 7.757 7.757 7.757s7.757-3.48 7.757-7.757-3.48-7.757-7.757-7.757H134.97a4.563 4.563 0 0 1 0-9.126h92.648c9.309 0 16.882 7.573 16.882 16.882s-7.573 16.883-16.882 16.883zM239.923 195.906H122.736a4.563 4.563 0 0 1 0-9.126h117.187a4.563 4.563 0 0 1 0 9.126z" opacity="1" data-original="#478cf7" class=""></path><path fill="#478cf7" d="M134.97 171.952h92.648c9.309 0 16.882-7.573 16.882-16.882s-7.573-16.882-16.882-16.882-16.882 7.573-16.882 16.882a4.563 4.563 0 0 0 9.126 0c0-4.277 3.48-7.757 7.757-7.757s7.757 3.48 7.757 7.757-3.48 7.757-7.757 7.757H134.97a4.563 4.563 0 0 0 0 9.125z" opacity="1" data-original="#478cf7" class=""></path><path fill="#2266d3" d="M236.778 140.909a16.768 16.768 0 0 1 2.722 9.161c0 9.309-7.573 16.882-16.882 16.882h-92.167c-.014.146-.044.288-.044.437a4.563 4.563 0 0 0 4.563 4.563h92.648c9.309 0 16.882-7.573 16.882-16.882 0-5.932-3.082-11.149-7.722-14.161zM222.618 214.861h-92.167c-.014.146-.044.288-.044.437a4.563 4.563 0 0 0 4.563 4.563h92.648c.83 0 1.629.135 2.38.377-1.008-3.116-3.934-5.377-7.38-5.377z" opacity="1" data-original="#2266d3" class=""></path><path fill="#478cf7" d="M244.486 191.344a4.563 4.563 0 0 0-4.563-4.563H122.736a4.563 4.563 0 0 0 0 9.126h117.187a4.564 4.564 0 0 0 4.563-4.563z" opacity="1" data-original="#478cf7" class=""></path><path fill="#2266d3" d="M239.923 190.906H122.736a4.552 4.552 0 0 1-3.811-2.063 4.54 4.54 0 0 0-.752 2.5 4.563 4.563 0 0 0 4.563 4.563h117.187a4.563 4.563 0 0 0 4.563-4.563c0-.924-.279-1.781-.752-2.5a4.552 4.552 0 0 1-3.811 2.063z" opacity="1" data-original="#2266d3" class=""></path><path fill="#808285" d="M23.619 11.5a8.32 8.32 0 0 0-8.32 8.32v216.36a8.32 8.32 0 0 0 16.64 0V19.82a8.319 8.319 0 0 0-8.32-8.32z" opacity="1" data-original="#808285"></path><path fill="#06000b" d="M26.439 12c.318.882.501 1.829.501 2.82v216.36a8.32 8.32 0 0 1-8.32 8.32 8.293 8.293 0 0 1-2.82-.5c1.156 3.205 4.216 5.5 7.82 5.5a8.32 8.32 0 0 0 8.32-8.32V19.82c0-3.603-2.296-6.663-5.501-7.82z" opacity="0.9411764705882353" data-original="#414042" class=""></path><path fill="#f79219" d="M35.729 67.719h-24.22V23.61c0-6.688 5.422-12.11 12.11-12.11s12.11 5.422 12.11 12.11z" opacity="1" data-original="#ffa91a" class=""></path><path fill="#f79219" d="M25.56 11.67c.102.633.17 1.278.17 1.94v44.109H11.51v10h24.22V23.61c-.001-6.026-4.407-11.01-10.17-11.94z" opacity="1" data-original="#f79219" class=""></path><path fill="#414042" d="M29.308 12.921a12.048 12.048 0 0 1 1.421 5.688v44.109h-19.22v5h24.22V23.61c0-4.631-2.602-8.652-6.421-10.689z" opacity="0.9411764705882353" data-original="#ef7816" class=""></path><path fill="#f79219" d="M30.729 112.877H16.5a5 5 0 0 1-5-5V90.824a5 5 0 0 1 5-5h14.229a5 5 0 0 1 5 5v17.053a5 5 0 0 1-5 5z" opacity="1" data-original="#ffa91a" class=""></path><path fill="#414042" d="M30.729 85.824v17.052a5 5 0 0 1-5 5H11.5a5 5 0 0 0 5 5h14.229a5 5 0 0 0 5-5V90.824a5 5 0 0 0-5-5z" opacity="0.9411764705882353" data-original="#ef7816" class=""></path><path fill="#f79219" d="M212.961 120.906 80.417 156.898V41.803L212.96 77.795a20 20 0 0 1 14.759 19.301v4.509a20 20 0 0 1-14.758 19.301z" opacity="1" data-original="#ffa91a" class=""></path><path fill="#e6e7e8" d="M88.738 44.062v110.577l38.893-10.562V54.624z" opacity="1" data-original="#e6e7e8" class=""></path><path fill="#414042" d="m127.631 128.646 11.151-3.073v15.476l-11.151 3.028zM177.675 114.925l11.151-2.896v15.431l-11.151 3.028z" opacity="0.9411764705882353" data-original="#ef7816" class=""></path><path fill="#e6e7e8" d="M138.782 57.651v83.398l38.893-10.561V68.213zM212.961 77.795l-24.135-6.554v56.219l24.135-6.554a20 20 0 0 0 14.759-19.301v-4.509a20.002 20.002 0 0 0-14.759-19.301zM88.738 44.062v110.577l38.893-10.562V54.624z" opacity="1" data-original="#e6e7e8" class=""></path><path fill="#d1d3d4" d="m138.782 141.049 38.893-10.561v-15.563l-38.893 10.648zM212.961 77.795l-9.086-2.467a19.952 19.952 0 0 1 3.845 11.768v4.509a20 20 0 0 1-14.759 19.301l-4.135 1.123v15.431l24.135-6.554a20 20 0 0 0 14.759-19.301v-4.509a20.002 20.002 0 0 0-14.759-19.301zM88.738 154.639l38.893-10.562v-15.431l-38.893 10.562z" opacity="1" data-original="#d1d3d4" class=""></path><path fill="#f79219" d="M80.417 30.363a8.32 8.32 0 0 0-8.32 8.32v121.334a8.32 8.32 0 0 0 16.64 0V38.684a8.32 8.32 0 0 0-8.32-8.321z" opacity="1" data-original="#ffa91a" class=""></path><path fill="#06000b" d="M78.1 162.02a2 2 0 0 1-2-2v-110c0-1.109.891-2 2-2a2 2 0 0 1 2 2v110c0 1.1-.9 2-2 2zm0-118a2 2 0 1 1-.001-3.999 2 2 0 0 1 .001 3.999z" opacity="0.9411764705882353" data-original="#ffc91d" class=""></path><path fill="#414042" d="M83.237 30.864c.318.882.501 1.828.501 2.82v121.333a8.32 8.32 0 0 1-8.32 8.32 8.293 8.293 0 0 1-2.82-.5c1.156 3.205 4.216 5.5 7.82 5.5a8.32 8.32 0 0 0 8.32-8.32V38.684c0-3.604-2.296-6.664-5.501-7.82z" opacity="0.9411764705882353" data-original="#ef7816" class=""></path></g></svg>