<?xml version="1.0" encoding="UTF-8"?>
<svg xmlns="http://www.w3.org/2000/svg" style="margin:auto;background:#69abed;display:block;z-index:1;position:relative" preserveAspectRatio="xMidYMid" viewBox="0 0 1920 1080">
  <g transform="translate(-100 388.197)">
    <animateTransform attributeName="transform" type="translate" keyTimes="0;1" values="-100 388.1971330919954;1920 388.1971330919954" dur="55.55555555555555s" repeatCount="indefinite" begin="-30.429446573261988s"></animateTransform>
    <path d="M42.359 16.799c.395-1.252.592-2.57.592-3.887C42.951 5.797 37.155 0 30.04 0c-4.941 0-9.223 2.767-11.397 6.851-.79-.263-1.713-.395-2.569-.395A8.547 8.547 0 0 0 7.51 15.02c0 .593.066 1.186.198 1.713C3.36 17.392 0 21.212 0 25.758a9.14 9.14 0 0 0 9.157 9.156h31.687A9.137 9.137 0 0 0 50 25.757c-.066-4.479-3.36-8.234-7.642-8.958" fill="#b6c9df"></path>
  </g>
  <g transform="translate(-100 886.388)">
    <animateTransform attributeName="transform" type="translate" keyTimes="0;1" values="-100 886.3876512886437;1920 886.3876512886437" dur="55.55555555555555s" repeatCount="indefinite" begin="-12.009005069527005s"></animateTransform>
    <path d="M42.359 16.799c.395-1.252.592-2.57.592-3.887C42.951 5.797 37.155 0 30.04 0c-4.941 0-9.223 2.767-11.397 6.851-.79-.263-1.713-.395-2.569-.395A8.547 8.547 0 0 0 7.51 15.02c0 .593.066 1.186.198 1.713C3.36 17.392 0 21.212 0 25.758a9.14 9.14 0 0 0 9.157 9.156h31.687A9.137 9.137 0 0 0 50 25.757c-.066-4.479-3.36-8.234-7.642-8.958" fill="#b6c9df"></path>
  </g>
  <g transform="translate(-100 564.701)">
    <animateTransform attributeName="transform" type="translate" keyTimes="0;1" values="-100 564.7014132759298;1920 564.7014132759298" dur="55.55555555555555s" repeatCount="indefinite" begin="-9.429997962459517s"></animateTransform>
    <path d="M42.359 16.799c.395-1.252.592-2.57.592-3.887C42.951 5.797 37.155 0 30.04 0c-4.941 0-9.223 2.767-11.397 6.851-.79-.263-1.713-.395-2.569-.395A8.547 8.547 0 0 0 7.51 15.02c0 .593.066 1.186.198 1.713C3.36 17.392 0 21.212 0 25.758a9.14 9.14 0 0 0 9.157 9.156h31.687A9.137 9.137 0 0 0 50 25.757c-.066-4.479-3.36-8.234-7.642-8.958" fill="#b6c9df"></path>
  </g>
  <g transform="translate(-100 691.69)">
    <animateTransform attributeName="transform" type="translate" keyTimes="0;1" values="-100 691.6892367999694;1920 691.6892367999694" dur="55.55555555555555s" repeatCount="indefinite" begin="-52.736094648212635s"></animateTransform>
    <path d="M42.359 16.799c.395-1.252.592-2.57.592-3.887C42.951 5.797 37.155 0 30.04 0c-4.941 0-9.223 2.767-11.397 6.851-.79-.263-1.713-.395-2.569-.395A8.547 8.547 0 0 0 7.51 15.02c0 .593.066 1.186.198 1.713C3.36 17.392 0 21.212 0 25.758a9.14 9.14 0 0 0 9.157 9.156h31.687A9.137 9.137 0 0 0 50 25.757c-.066-4.479-3.36-8.234-7.642-8.958" fill="#b6c9df"></path>
  </g>
  <g transform="translate(-100 629.05)">
    <animateTransform attributeName="transform" type="translate" keyTimes="0;1" values="-100 629.0506597194794;1920 629.0506597194794" dur="55.55555555555555s" repeatCount="indefinite" begin="-37.5900413550806s"></animateTransform>
    <path d="M42.359 16.799c.395-1.252.592-2.57.592-3.887C42.951 5.797 37.155 0 30.04 0c-4.941 0-9.223 2.767-11.397 6.851-.79-.263-1.713-.395-2.569-.395A8.547 8.547 0 0 0 7.51 15.02c0 .593.066 1.186.198 1.713C3.36 17.392 0 21.212 0 25.758a9.14 9.14 0 0 0 9.157 9.156h31.687A9.137 9.137 0 0 0 50 25.757c-.066-4.479-3.36-8.234-7.642-8.958" fill="#b6c9df"></path>
  </g>
  <g transform="translate(-100 150.765)">
    <animateTransform attributeName="transform" type="translate" keyTimes="0;1" values="-100 150.76476263505967;1920 150.76476263505967" dur="55.55555555555555s" repeatCount="indefinite" begin="-19.16611386042392s"></animateTransform>
    <path d="M42.359 16.799c.395-1.252.592-2.57.592-3.887C42.951 5.797 37.155 0 30.04 0c-4.941 0-9.223 2.767-11.397 6.851-.79-.263-1.713-.395-2.569-.395A8.547 8.547 0 0 0 7.51 15.02c0 .593.066 1.186.198 1.713C3.36 17.392 0 21.212 0 25.758a9.14 9.14 0 0 0 9.157 9.156h31.687A9.137 9.137 0 0 0 50 25.757c-.066-4.479-3.36-8.234-7.642-8.958" fill="#b6c9df"></path>
  </g>
  <g transform="translate(-100 491.612)">
    <animateTransform attributeName="transform" type="translate" keyTimes="0;1" values="-100 491.6122581681322;1920 491.6122581681322" dur="55.55555555555555s" repeatCount="indefinite" begin="-44.71412278965235s"></animateTransform>
    <path d="M42.359 16.799c.395-1.252.592-2.57.592-3.887C42.951 5.797 37.155 0 30.04 0c-4.941 0-9.223 2.767-11.397 6.851-.79-.263-1.713-.395-2.569-.395A8.547 8.547 0 0 0 7.51 15.02c0 .593.066 1.186.198 1.713C3.36 17.392 0 21.212 0 25.758a9.14 9.14 0 0 0 9.157 9.156h31.687A9.137 9.137 0 0 0 50 25.757c-.066-4.479-3.36-8.234-7.642-8.958" fill="#b6c9df"></path>
  </g>
  <g transform="translate(-100 988.714)">
    <animateTransform attributeName="transform" type="translate" keyTimes="0;1" values="-100 988.7144837217228;1920 988.7144837217228" dur="55.55555555555555s" repeatCount="indefinite" begin="-10.861992829833687s"></animateTransform>
    <path d="M42.359 16.799c.395-1.252.592-2.57.592-3.887C42.951 5.797 37.155 0 30.04 0c-4.941 0-9.223 2.767-11.397 6.851-.79-.263-1.713-.395-2.569-.395A8.547 8.547 0 0 0 7.51 15.02c0 .593.066 1.186.198 1.713C3.36 17.392 0 21.212 0 25.758a9.14 9.14 0 0 0 9.157 9.156h31.687A9.137 9.137 0 0 0 50 25.757c-.066-4.479-3.36-8.234-7.642-8.958" fill="#b6c9df"></path>
  </g>
  <g transform="translate(-100 108.83)">
    <animateTransform attributeName="transform" type="translate" keyTimes="0;1" values="-100 108.83039123274534;1920 108.83039123274534" dur="55.55555555555555s" repeatCount="indefinite" begin="-43.311234183858694s"></animateTransform>
    <path d="M42.359 16.799c.395-1.252.592-2.57.592-3.887C42.951 5.797 37.155 0 30.04 0c-4.941 0-9.223 2.767-11.397 6.851-.79-.263-1.713-.395-2.569-.395A8.547 8.547 0 0 0 7.51 15.02c0 .593.066 1.186.198 1.713C3.36 17.392 0 21.212 0 25.758a9.14 9.14 0 0 0 9.157 9.156h31.687A9.137 9.137 0 0 0 50 25.757c-.066-4.479-3.36-8.234-7.642-8.958" fill="#b6c9df"></path>
  </g>
  <g transform="translate(-100 238.14)">
    <animateTransform attributeName="transform" type="translate" keyTimes="0;1" values="-100 238.14072640450846;1920 238.14072640450846" dur="55.55555555555555s" repeatCount="indefinite" begin="-55.55164092522404s"></animateTransform>
    <path d="M42.359 16.799c.395-1.252.592-2.57.592-3.887C42.951 5.797 37.155 0 30.04 0c-4.941 0-9.223 2.767-11.397 6.851-.79-.263-1.713-.395-2.569-.395A8.547 8.547 0 0 0 7.51 15.02c0 .593.066 1.186.198 1.713C3.36 17.392 0 21.212 0 25.758a9.14 9.14 0 0 0 9.157 9.156h31.687A9.137 9.137 0 0 0 50 25.757c-.066-4.479-3.36-8.234-7.642-8.958" fill="#b6c9df"></path>
  </g>
  <g transform="translate(-100 451.067)">
    <animateTransform attributeName="transform" type="translate" keyTimes="0;1" values="-100 451.0670235648203;1920 451.0670235648203" dur="55.55555555555555s" repeatCount="indefinite" begin="-41.475954988130326s"></animateTransform>
    <path d="M42.359 16.799c.395-1.252.592-2.57.592-3.887C42.951 5.797 37.155 0 30.04 0c-4.941 0-9.223 2.767-11.397 6.851-.79-.263-1.713-.395-2.569-.395A8.547 8.547 0 0 0 7.51 15.02c0 .593.066 1.186.198 1.713C3.36 17.392 0 21.212 0 25.758a9.14 9.14 0 0 0 9.157 9.156h31.687A9.137 9.137 0 0 0 50 25.757c-.066-4.479-3.36-8.234-7.642-8.958" fill="#b6c9df"></path>
  </g>
  <g transform="translate(-100 149.981)">
    <animateTransform attributeName="transform" type="translate" keyTimes="0;1" values="-100 149.98095373350222;1920 149.98095373350222" dur="27.777777777777775s" repeatCount="indefinite" begin="-51.85471455404693s"></animateTransform>
    <path d="M84.717 33.597a25.9 25.9 0 0 0 1.186-7.773C85.903 11.594 74.308 0 60.079 0c-9.881 0-18.445 5.534-22.793 13.702-1.581-.527-3.426-.791-5.138-.791A17.094 17.094 0 0 0 15.02 30.039c0 1.186.132 2.372.395 3.426C6.719 34.783 0 42.424 0 51.515a18.275 18.275 0 0 0 18.314 18.314h63.373A18.275 18.275 0 0 0 100 51.515c-.132-8.959-6.719-16.469-15.283-17.918" fill="#39a3df"></path>
  </g>
  <g transform="translate(-100 297.716)">
    <animateTransform attributeName="transform" type="translate" keyTimes="0;1" values="-100 297.71578575138807;1920 297.71578575138807" dur="27.777777777777775s" repeatCount="indefinite" begin="-2.087269837148094s"></animateTransform>
    <path d="M84.717 33.597a25.9 25.9 0 0 0 1.186-7.773C85.903 11.594 74.308 0 60.079 0c-9.881 0-18.445 5.534-22.793 13.702-1.581-.527-3.426-.791-5.138-.791A17.094 17.094 0 0 0 15.02 30.039c0 1.186.132 2.372.395 3.426C6.719 34.783 0 42.424 0 51.515a18.275 18.275 0 0 0 18.314 18.314h63.373A18.275 18.275 0 0 0 100 51.515c-.132-8.959-6.719-16.469-15.283-17.918" fill="#39a3df"></path>
  </g>
  <g transform="translate(-100 877.525)">
    <animateTransform attributeName="transform" type="translate" keyTimes="0;1" values="-100 877.5248223984908;1920 877.5248223984908" dur="27.777777777777775s" repeatCount="indefinite" begin="-14.248608813290645s"></animateTransform>
    <path d="M84.717 33.597a25.9 25.9 0 0 0 1.186-7.773C85.903 11.594 74.308 0 60.079 0c-9.881 0-18.445 5.534-22.793 13.702-1.581-.527-3.426-.791-5.138-.791A17.094 17.094 0 0 0 15.02 30.039c0 1.186.132 2.372.395 3.426C6.719 34.783 0 42.424 0 51.515a18.275 18.275 0 0 0 18.314 18.314h63.373A18.275 18.275 0 0 0 100 51.515c-.132-8.959-6.719-16.469-15.283-17.918" fill="#39a3df"></path>
  </g>
  <g transform="translate(-100 226.042)">
    <animateTransform attributeName="transform" type="translate" keyTimes="0;1" values="-100 226.04174832982454;1920 226.04174832982454" dur="27.777777777777775s" repeatCount="indefinite" begin="-23.204064882240335s"></animateTransform>
    <path d="M84.717 33.597a25.9 25.9 0 0 0 1.186-7.773C85.903 11.594 74.308 0 60.079 0c-9.881 0-18.445 5.534-22.793 13.702-1.581-.527-3.426-.791-5.138-.791A17.094 17.094 0 0 0 15.02 30.039c0 1.186.132 2.372.395 3.426C6.719 34.783 0 42.424 0 51.515a18.275 18.275 0 0 0 18.314 18.314h63.373A18.275 18.275 0 0 0 100 51.515c-.132-8.959-6.719-16.469-15.283-17.918" fill="#39a3df"></path>
  </g>
  <g transform="translate(-100 374.427)">
    <animateTransform attributeName="transform" type="translate" keyTimes="0;1" values="-100 374.42744426066525;1920 374.42744426066525" dur="27.777777777777775s" repeatCount="indefinite" begin="-21.984891529724504s"></animateTransform>
    <path d="M84.717 33.597a25.9 25.9 0 0 0 1.186-7.773C85.903 11.594 74.308 0 60.079 0c-9.881 0-18.445 5.534-22.793 13.702-1.581-.527-3.426-.791-5.138-.791A17.094 17.094 0 0 0 15.02 30.039c0 1.186.132 2.372.395 3.426C6.719 34.783 0 42.424 0 51.515a18.275 18.275 0 0 0 18.314 18.314h63.373A18.275 18.275 0 0 0 100 51.515c-.132-8.959-6.719-16.469-15.283-17.918" fill="#39a3df"></path>
  </g>
  <g transform="translate(-100 940.81)">
    <animateTransform attributeName="transform" type="translate" keyTimes="0;1" values="-100 940.8102349298503;1920 940.8102349298503" dur="27.777777777777775s" repeatCount="indefinite" begin="-37.887641462567125s"></animateTransform>
    <path d="M84.717 33.597a25.9 25.9 0 0 0 1.186-7.773C85.903 11.594 74.308 0 60.079 0c-9.881 0-18.445 5.534-22.793 13.702-1.581-.527-3.426-.791-5.138-.791A17.094 17.094 0 0 0 15.02 30.039c0 1.186.132 2.372.395 3.426C6.719 34.783 0 42.424 0 51.515a18.275 18.275 0 0 0 18.314 18.314h63.373A18.275 18.275 0 0 0 100 51.515c-.132-8.959-6.719-16.469-15.283-17.918" fill="#39a3df"></path>
  </g>
  <g transform="translate(-100 948.54)">
    <animateTransform attributeName="transform" type="translate" keyTimes="0;1" values="-100 948.5399552835988;1920 948.5399552835988" dur="27.777777777777775s" repeatCount="indefinite" begin="-31.608924356659625s"></animateTransform>
    <path d="M84.717 33.597a25.9 25.9 0 0 0 1.186-7.773C85.903 11.594 74.308 0 60.079 0c-9.881 0-18.445 5.534-22.793 13.702-1.581-.527-3.426-.791-5.138-.791A17.094 17.094 0 0 0 15.02 30.039c0 1.186.132 2.372.395 3.426C6.719 34.783 0 42.424 0 51.515a18.275 18.275 0 0 0 18.314 18.314h63.373A18.275 18.275 0 0 0 100 51.515c-.132-8.959-6.719-16.469-15.283-17.918" fill="#39a3df"></path>
  </g>
  <g transform="translate(-100 806.738)">
    <animateTransform attributeName="transform" type="translate" keyTimes="0;1" values="-100 806.7375130022331;1920 806.7375130022331" dur="27.777777777777775s" repeatCount="indefinite" begin="-41.429952776055934s"></animateTransform>
    <path d="M84.717 33.597a25.9 25.9 0 0 0 1.186-7.773C85.903 11.594 74.308 0 60.079 0c-9.881 0-18.445 5.534-22.793 13.702-1.581-.527-3.426-.791-5.138-.791A17.094 17.094 0 0 0 15.02 30.039c0 1.186.132 2.372.395 3.426C6.719 34.783 0 42.424 0 51.515a18.275 18.275 0 0 0 18.314 18.314h63.373A18.275 18.275 0 0 0 100 51.515c-.132-8.959-6.719-16.469-15.283-17.918" fill="#39a3df"></path>
  </g>
  <g transform="translate(-100 407.36)">
    <animateTransform attributeName="transform" type="translate" keyTimes="0;1" values="-100 407.35917382006147;1920 407.35917382006147" dur="27.777777777777775s" repeatCount="indefinite" begin="-43.81969748046896s"></animateTransform>
    <path d="M84.717 33.597a25.9 25.9 0 0 0 1.186-7.773C85.903 11.594 74.308 0 60.079 0c-9.881 0-18.445 5.534-22.793 13.702-1.581-.527-3.426-.791-5.138-.791A17.094 17.094 0 0 0 15.02 30.039c0 1.186.132 2.372.395 3.426C6.719 34.783 0 42.424 0 51.515a18.275 18.275 0 0 0 18.314 18.314h63.373A18.275 18.275 0 0 0 100 51.515c-.132-8.959-6.719-16.469-15.283-17.918" fill="#39a3df"></path>
  </g>
  <g transform="translate(-100 852.928)">
    <animateTransform attributeName="transform" type="translate" keyTimes="0;1" values="-100 852.9282417017962;1920 852.9282417017962" dur="27.777777777777775s" repeatCount="indefinite" begin="-1.0264523689335305s"></animateTransform>
    <path d="M84.717 33.597a25.9 25.9 0 0 0 1.186-7.773C85.903 11.594 74.308 0 60.079 0c-9.881 0-18.445 5.534-22.793 13.702-1.581-.527-3.426-.791-5.138-.791A17.094 17.094 0 0 0 15.02 30.039c0 1.186.132 2.372.395 3.426C6.719 34.783 0 42.424 0 51.515a18.275 18.275 0 0 0 18.314 18.314h63.373A18.275 18.275 0 0 0 100 51.515c-.132-8.959-6.719-16.469-15.283-17.918" fill="#39a3df"></path>
  </g>
  <g transform="translate(-100 457.315)">
    <animateTransform attributeName="transform" type="translate" keyTimes="0;1" values="-100 457.3153701521201;1920 457.3153701521201" dur="27.777777777777775s" repeatCount="indefinite" begin="-27.052667458609655s"></animateTransform>
    <path d="M84.717 33.597a25.9 25.9 0 0 0 1.186-7.773C85.903 11.594 74.308 0 60.079 0c-9.881 0-18.445 5.534-22.793 13.702-1.581-.527-3.426-.791-5.138-.791A17.094 17.094 0 0 0 15.02 30.039c0 1.186.132 2.372.395 3.426C6.719 34.783 0 42.424 0 51.515a18.275 18.275 0 0 0 18.314 18.314h63.373A18.275 18.275 0 0 0 100 51.515c-.132-8.959-6.719-16.469-15.283-17.918" fill="#39a3df"></path>
  </g>
  <g transform="translate(-100 413.895)">
    <animateTransform attributeName="transform" type="translate" keyTimes="0;1" values="-100 413.89464935645105;1920 413.89464935645105" dur="18.518518518518515s" repeatCount="indefinite" begin="-20.763803603903813s"></animateTransform>
    <path d="M127.076 50.396a38.8 38.8 0 0 0 1.779-11.66C128.855 17.391 111.462 0 90.119 0 75.297 0 62.45 8.301 55.929 20.553c-2.371-.79-5.139-1.186-7.707-1.186-14.229 0-25.692 11.463-25.692 25.692 0 1.779.198 3.558.593 5.139C10.078 52.175 0 63.636 0 77.273a27.413 27.413 0 0 0 27.471 27.47h95.06A27.41 27.41 0 0 0 150 77.273c-.198-13.439-10.078-24.704-22.924-26.877" fill="#b6c9df"></path>
  </g>
  <g transform="translate(-100 875.808)">
    <animateTransform attributeName="transform" type="translate" keyTimes="0;1" values="-100 875.8084415262914;1920 875.8084415262914" dur="18.518518518518515s" repeatCount="indefinite" begin="-3.3300573476316244s"></animateTransform>
    <path d="M127.076 50.396a38.8 38.8 0 0 0 1.779-11.66C128.855 17.391 111.462 0 90.119 0 75.297 0 62.45 8.301 55.929 20.553c-2.371-.79-5.139-1.186-7.707-1.186-14.229 0-25.692 11.463-25.692 25.692 0 1.779.198 3.558.593 5.139C10.078 52.175 0 63.636 0 77.273a27.413 27.413 0 0 0 27.471 27.47h95.06A27.41 27.41 0 0 0 150 77.273c-.198-13.439-10.078-24.704-22.924-26.877" fill="#b6c9df"></path>
  </g>
  <g transform="translate(-100 662.703)">
    <animateTransform attributeName="transform" type="translate" keyTimes="0;1" values="-100 662.7025630636012;1920 662.7025630636012" dur="18.518518518518515s" repeatCount="indefinite" begin="-41.519547457230715s"></animateTransform>
    <path d="M127.076 50.396a38.8 38.8 0 0 0 1.779-11.66C128.855 17.391 111.462 0 90.119 0 75.297 0 62.45 8.301 55.929 20.553c-2.371-.79-5.139-1.186-7.707-1.186-14.229 0-25.692 11.463-25.692 25.692 0 1.779.198 3.558.593 5.139C10.078 52.175 0 63.636 0 77.273a27.413 27.413 0 0 0 27.471 27.47h95.06A27.41 27.41 0 0 0 150 77.273c-.198-13.439-10.078-24.704-22.924-26.877" fill="#b6c9df"></path>
  </g>
  <g transform="translate(-100 766.466)">
    <animateTransform attributeName="transform" type="translate" keyTimes="0;1" values="-100 766.4661395778786;1920 766.4661395778786" dur="18.518518518518515s" repeatCount="indefinite" begin="-42.65060945450419s"></animateTransform>
    <path d="M127.076 50.396a38.8 38.8 0 0 0 1.779-11.66C128.855 17.391 111.462 0 90.119 0 75.297 0 62.45 8.301 55.929 20.553c-2.371-.79-5.139-1.186-7.707-1.186-14.229 0-25.692 11.463-25.692 25.692 0 1.779.198 3.558.593 5.139C10.078 52.175 0 63.636 0 77.273a27.413 27.413 0 0 0 27.471 27.47h95.06A27.41 27.41 0 0 0 150 77.273c-.198-13.439-10.078-24.704-22.924-26.877" fill="#b6c9df"></path>
  </g>
  <g transform="translate(-100 582.802)">
    <animateTransform attributeName="transform" type="translate" keyTimes="0;1" values="-100 582.8021605043992;1920 582.8021605043992" dur="18.518518518518515s" repeatCount="indefinite" begin="-22.259419141952616s"></animateTransform>
    <path d="M127.076 50.396a38.8 38.8 0 0 0 1.779-11.66C128.855 17.391 111.462 0 90.119 0 75.297 0 62.45 8.301 55.929 20.553c-2.371-.79-5.139-1.186-7.707-1.186-14.229 0-25.692 11.463-25.692 25.692 0 1.779.198 3.558.593 5.139C10.078 52.175 0 63.636 0 77.273a27.413 27.413 0 0 0 27.471 27.47h95.06A27.41 27.41 0 0 0 150 77.273c-.198-13.439-10.078-24.704-22.924-26.877" fill="#b6c9df"></path>
  </g>
  <g transform="translate(-100 636.821)">
    <animateTransform attributeName="transform" type="translate" keyTimes="0;1" values="-100 636.8210380847734;1920 636.8210380847734" dur="18.518518518518515s" repeatCount="indefinite" begin="-21.28443035718392s"></animateTransform>
    <path d="M127.076 50.396a38.8 38.8 0 0 0 1.779-11.66C128.855 17.391 111.462 0 90.119 0 75.297 0 62.45 8.301 55.929 20.553c-2.371-.79-5.139-1.186-7.707-1.186-14.229 0-25.692 11.463-25.692 25.692 0 1.779.198 3.558.593 5.139C10.078 52.175 0 63.636 0 77.273a27.413 27.413 0 0 0 27.471 27.47h95.06A27.41 27.41 0 0 0 150 77.273c-.198-13.439-10.078-24.704-22.924-26.877" fill="#b6c9df"></path>
  </g>
  <g transform="translate(-100 963.803)">
    <animateTransform attributeName="transform" type="translate" keyTimes="0;1" values="-100 963.8025796494829;1920 963.8025796494829" dur="18.518518518518515s" repeatCount="indefinite" begin="-10.695029493835223s"></animateTransform>
    <path d="M127.076 50.396a38.8 38.8 0 0 0 1.779-11.66C128.855 17.391 111.462 0 90.119 0 75.297 0 62.45 8.301 55.929 20.553c-2.371-.79-5.139-1.186-7.707-1.186-14.229 0-25.692 11.463-25.692 25.692 0 1.779.198 3.558.593 5.139C10.078 52.175 0 63.636 0 77.273a27.413 27.413 0 0 0 27.471 27.47h95.06A27.41 27.41 0 0 0 150 77.273c-.198-13.439-10.078-24.704-22.924-26.877" fill="#b6c9df"></path>
  </g>
  <g transform="translate(-100 115.099)">
    <animateTransform attributeName="transform" type="translate" keyTimes="0;1" values="-100 115.09850293907598;1920 115.09850293907598" dur="18.518518518518515s" repeatCount="indefinite" begin="-25.80204056933397s"></animateTransform>
    <path d="M127.076 50.396a38.8 38.8 0 0 0 1.779-11.66C128.855 17.391 111.462 0 90.119 0 75.297 0 62.45 8.301 55.929 20.553c-2.371-.79-5.139-1.186-7.707-1.186-14.229 0-25.692 11.463-25.692 25.692 0 1.779.198 3.558.593 5.139C10.078 52.175 0 63.636 0 77.273a27.413 27.413 0 0 0 27.471 27.47h95.06A27.41 27.41 0 0 0 150 77.273c-.198-13.439-10.078-24.704-22.924-26.877" fill="#b6c9df"></path>
  </g>
  <g transform="translate(-100 852.748)">
    <animateTransform attributeName="transform" type="translate" keyTimes="0;1" values="-100 852.7480010581091;1920 852.7480010581091" dur="18.518518518518515s" repeatCount="indefinite" begin="-27.798778151849966s"></animateTransform>
    <path d="M127.076 50.396a38.8 38.8 0 0 0 1.779-11.66C128.855 17.391 111.462 0 90.119 0 75.297 0 62.45 8.301 55.929 20.553c-2.371-.79-5.139-1.186-7.707-1.186-14.229 0-25.692 11.463-25.692 25.692 0 1.779.198 3.558.593 5.139C10.078 52.175 0 63.636 0 77.273a27.413 27.413 0 0 0 27.471 27.47h95.06A27.41 27.41 0 0 0 150 77.273c-.198-13.439-10.078-24.704-22.924-26.877" fill="#b6c9df"></path>
  </g>
  <g transform="translate(-100 537.107)">
    <animateTransform attributeName="transform" type="translate" keyTimes="0;1" values="-100 537.1074720463297;1920 537.1074720463297" dur="18.518518518518515s" repeatCount="indefinite" begin="-4.069680771433128s"></animateTransform>
    <path d="M127.076 50.396a38.8 38.8 0 0 0 1.779-11.66C128.855 17.391 111.462 0 90.119 0 75.297 0 62.45 8.301 55.929 20.553c-2.371-.79-5.139-1.186-7.707-1.186-14.229 0-25.692 11.463-25.692 25.692 0 1.779.198 3.558.593 5.139C10.078 52.175 0 63.636 0 77.273a27.413 27.413 0 0 0 27.471 27.47h95.06A27.41 27.41 0 0 0 150 77.273c-.198-13.439-10.078-24.704-22.924-26.877" fill="#b6c9df"></path>
  </g>
  <g transform="translate(-100 67.117)">
    <animateTransform attributeName="transform" type="translate" keyTimes="0;1" values="-100 67.11706149930737;1920 67.11706149930737" dur="18.518518518518515s" repeatCount="indefinite" begin="-50.360755468358825s"></animateTransform>
    <path d="M127.076 50.396a38.8 38.8 0 0 0 1.779-11.66C128.855 17.391 111.462 0 90.119 0 75.297 0 62.45 8.301 55.929 20.553c-2.371-.79-5.139-1.186-7.707-1.186-14.229 0-25.692 11.463-25.692 25.692 0 1.779.198 3.558.593 5.139C10.078 52.175 0 63.636 0 77.273a27.413 27.413 0 0 0 27.471 27.47h95.06A27.41 27.41 0 0 0 150 77.273c-.198-13.439-10.078-24.704-22.924-26.877" fill="#b6c9df"></path>
  </g>
  <g transform="translate(-100 726.452)">
    <animateTransform attributeName="transform" type="translate" keyTimes="0;1" values="-100 726.452077488515;1920 726.452077488515" dur="13.888888888888888s" repeatCount="indefinite" begin="-31.810896740586873s"></animateTransform>
    <path d="M169.434 67.194c1.582-5.006 2.372-10.276 2.372-15.546 0-28.46-23.19-51.648-51.648-51.648-19.762 0-36.89 11.068-45.586 27.404-3.162-1.054-6.852-1.582-10.276-1.582-18.972 0-34.256 15.284-34.256 34.256 0 2.372.264 4.744.79 6.852C13.438 69.566 0 84.848 0 103.03c0 20.29 16.338 36.628 36.628 36.628h126.746c20.288 0 36.626-16.338 36.626-36.628-.264-17.918-13.438-32.938-30.566-35.836" fill="#39a3df"></path>
  </g>
  <g transform="translate(-100 330.76)">
    <animateTransform attributeName="transform" type="translate" keyTimes="0;1" values="-100 330.7591216207261;1920 330.7591216207261" dur="13.888888888888888s" repeatCount="indefinite" begin="-47.77085435072304s"></animateTransform>
    <path d="M169.434 67.194c1.582-5.006 2.372-10.276 2.372-15.546 0-28.46-23.19-51.648-51.648-51.648-19.762 0-36.89 11.068-45.586 27.404-3.162-1.054-6.852-1.582-10.276-1.582-18.972 0-34.256 15.284-34.256 34.256 0 2.372.264 4.744.79 6.852C13.438 69.566 0 84.848 0 103.03c0 20.29 16.338 36.628 36.628 36.628h126.746c20.288 0 36.626-16.338 36.626-36.628-.264-17.918-13.438-32.938-30.566-35.836" fill="#39a3df"></path>
  </g>
  <g transform="translate(-100 174.366)">
    <animateTransform attributeName="transform" type="translate" keyTimes="0;1" values="-100 174.36623596561074;1920 174.36623596561074" dur="13.888888888888888s" repeatCount="indefinite" begin="-27.832931411334258s"></animateTransform>
    <path d="M169.434 67.194c1.582-5.006 2.372-10.276 2.372-15.546 0-28.46-23.19-51.648-51.648-51.648-19.762 0-36.89 11.068-45.586 27.404-3.162-1.054-6.852-1.582-10.276-1.582-18.972 0-34.256 15.284-34.256 34.256 0 2.372.264 4.744.79 6.852C13.438 69.566 0 84.848 0 103.03c0 20.29 16.338 36.628 36.628 36.628h126.746c20.288 0 36.626-16.338 36.626-36.628-.264-17.918-13.438-32.938-30.566-35.836" fill="#39a3df"></path>
  </g>
  <g transform="translate(-100 715.328)">
    <animateTransform attributeName="transform" type="translate" keyTimes="0;1" values="-100 715.3280964814103;1920 715.3280964814103" dur="13.888888888888888s" repeatCount="indefinite" begin="-38.42339491498715s"></animateTransform>
    <path d="M169.434 67.194c1.582-5.006 2.372-10.276 2.372-15.546 0-28.46-23.19-51.648-51.648-51.648-19.762 0-36.89 11.068-45.586 27.404-3.162-1.054-6.852-1.582-10.276-1.582-18.972 0-34.256 15.284-34.256 34.256 0 2.372.264 4.744.79 6.852C13.438 69.566 0 84.848 0 103.03c0 20.29 16.338 36.628 36.628 36.628h126.746c20.288 0 36.626-16.338 36.626-36.628-.264-17.918-13.438-32.938-30.566-35.836" fill="#39a3df"></path>
  </g>
  <g transform="translate(-100 16.362)">
    <animateTransform attributeName="transform" type="translate" keyTimes="0;1" values="-100 16.362025975150345;1920 16.362025975150345" dur="13.888888888888888s" repeatCount="indefinite" begin="-46.306688023946485s"></animateTransform>
    <path d="M169.434 67.194c1.582-5.006 2.372-10.276 2.372-15.546 0-28.46-23.19-51.648-51.648-51.648-19.762 0-36.89 11.068-45.586 27.404-3.162-1.054-6.852-1.582-10.276-1.582-18.972 0-34.256 15.284-34.256 34.256 0 2.372.264 4.744.79 6.852C13.438 69.566 0 84.848 0 103.03c0 20.29 16.338 36.628 36.628 36.628h126.746c20.288 0 36.626-16.338 36.626-36.628-.264-17.918-13.438-32.938-30.566-35.836" fill="#39a3df"></path>
  </g>
  <g transform="translate(-100 945.641)">
    <animateTransform attributeName="transform" type="translate" keyTimes="0;1" values="-100 945.6411104456109;1920 945.6411104456109" dur="13.888888888888888s" repeatCount="indefinite" begin="-28.510575725748676s"></animateTransform>
    <path d="M169.434 67.194c1.582-5.006 2.372-10.276 2.372-15.546 0-28.46-23.19-51.648-51.648-51.648-19.762 0-36.89 11.068-45.586 27.404-3.162-1.054-6.852-1.582-10.276-1.582-18.972 0-34.256 15.284-34.256 34.256 0 2.372.264 4.744.79 6.852C13.438 69.566 0 84.848 0 103.03c0 20.29 16.338 36.628 36.628 36.628h126.746c20.288 0 36.626-16.338 36.626-36.628-.264-17.918-13.438-32.938-30.566-35.836" fill="#39a3df"></path>
  </g>
  <g transform="translate(-100 855.555)">
    <animateTransform attributeName="transform" type="translate" keyTimes="0;1" values="-100 855.5547618295411;1920 855.5547618295411" dur="13.888888888888888s" repeatCount="indefinite" begin="-16.589677991108097s"></animateTransform>
    <path d="M169.434 67.194c1.582-5.006 2.372-10.276 2.372-15.546 0-28.46-23.19-51.648-51.648-51.648-19.762 0-36.89 11.068-45.586 27.404-3.162-1.054-6.852-1.582-10.276-1.582-18.972 0-34.256 15.284-34.256 34.256 0 2.372.264 4.744.79 6.852C13.438 69.566 0 84.848 0 103.03c0 20.29 16.338 36.628 36.628 36.628h126.746c20.288 0 36.626-16.338 36.626-36.628-.264-17.918-13.438-32.938-30.566-35.836" fill="#39a3df"></path>
  </g>
  <g transform="translate(-100 786.572)">
    <animateTransform attributeName="transform" type="translate" keyTimes="0;1" values="-100 786.5715303336218;1920 786.5715303336218" dur="13.888888888888888s" repeatCount="indefinite" begin="-15.898975362008459s"></animateTransform>
    <path d="M169.434 67.194c1.582-5.006 2.372-10.276 2.372-15.546 0-28.46-23.19-51.648-51.648-51.648-19.762 0-36.89 11.068-45.586 27.404-3.162-1.054-6.852-1.582-10.276-1.582-18.972 0-34.256 15.284-34.256 34.256 0 2.372.264 4.744.79 6.852C13.438 69.566 0 84.848 0 103.03c0 20.29 16.338 36.628 36.628 36.628h126.746c20.288 0 36.626-16.338 36.626-36.628-.264-17.918-13.438-32.938-30.566-35.836" fill="#39a3df"></path>
  </g>
  <g transform="translate(-100 837.833)">
    <animateTransform attributeName="transform" type="translate" keyTimes="0;1" values="-100 837.8333498639774;1920 837.8333498639774" dur="13.888888888888888s" repeatCount="indefinite" begin="-29.0995130600027s"></animateTransform>
    <path d="M169.434 67.194c1.582-5.006 2.372-10.276 2.372-15.546 0-28.46-23.19-51.648-51.648-51.648-19.762 0-36.89 11.068-45.586 27.404-3.162-1.054-6.852-1.582-10.276-1.582-18.972 0-34.256 15.284-34.256 34.256 0 2.372.264 4.744.79 6.852C13.438 69.566 0 84.848 0 103.03c0 20.29 16.338 36.628 36.628 36.628h126.746c20.288 0 36.626-16.338 36.626-36.628-.264-17.918-13.438-32.938-30.566-35.836" fill="#39a3df"></path>
  </g>
  <g transform="translate(-100 73.937)">
    <animateTransform attributeName="transform" type="translate" keyTimes="0;1" values="-100 73.93679968402823;1920 73.93679968402823" dur="13.888888888888888s" repeatCount="indefinite" begin="-20.925384808709225s"></animateTransform>
    <path d="M169.434 67.194c1.582-5.006 2.372-10.276 2.372-15.546 0-28.46-23.19-51.648-51.648-51.648-19.762 0-36.89 11.068-45.586 27.404-3.162-1.054-6.852-1.582-10.276-1.582-18.972 0-34.256 15.284-34.256 34.256 0 2.372.264 4.744.79 6.852C13.438 69.566 0 84.848 0 103.03c0 20.29 16.338 36.628 36.628 36.628h126.746c20.288 0 36.626-16.338 36.626-36.628-.264-17.918-13.438-32.938-30.566-35.836" fill="#39a3df"></path>
  </g>
  <g transform="translate(-100 489.944)">
    <animateTransform attributeName="transform" type="translate" keyTimes="0;1" values="-100 489.9439359363953;1920 489.9439359363953" dur="13.888888888888888s" repeatCount="indefinite" begin="-21.28918740283081s"></animateTransform>
    <path d="M169.434 67.194c1.582-5.006 2.372-10.276 2.372-15.546 0-28.46-23.19-51.648-51.648-51.648-19.762 0-36.89 11.068-45.586 27.404-3.162-1.054-6.852-1.582-10.276-1.582-18.972 0-34.256 15.284-34.256 34.256 0 2.372.264 4.744.79 6.852C13.438 69.566 0 84.848 0 103.03c0 20.29 16.338 36.628 36.628 36.628h126.746c20.288 0 36.626-16.338 36.626-36.628-.264-17.918-13.438-32.938-30.566-35.836" fill="#39a3df"></path>
  </g>
  <g transform="translate(-100 98.96)">
    <animateTransform attributeName="transform" type="translate" keyTimes="0;1" values="-100 98.9590656287861;1920 98.9590656287861" dur="13.888888888888888s" repeatCount="indefinite" begin="-55.105547149515736s"></animateTransform>
    <path d="M169.434 67.194c1.582-5.006 2.372-10.276 2.372-15.546 0-28.46-23.19-51.648-51.648-51.648-19.762 0-36.89 11.068-45.586 27.404-3.162-1.054-6.852-1.582-10.276-1.582-18.972 0-34.256 15.284-34.256 34.256 0 2.372.264 4.744.79 6.852C13.438 69.566 0 84.848 0 103.03c0 20.29 16.338 36.628 36.628 36.628h126.746c20.288 0 36.626-16.338 36.626-36.628-.264-17.918-13.438-32.938-30.566-35.836" fill="#39a3df"></path>
  </g>
</svg>
