<svg xmlns="http://www.w3.org/2000/svg" xmlns:xlink="http://www.w3.org/1999/xlink" style="margin:auto;background:#9ac9f7;display:block;z-index:1;position:relative" width="1536" height="791" preserveAspectRatio="xMidYMid" viewBox="0 0 1536 791">
<g transform="translate(768,395.5) scale(1,1) translate(-768,-395.5)"><path id="path0" d="M 744.2288616317275 518.5090575792448
c 0 24.682799623799937 -6.039408418589345 7.08974031747445 -13.129148736063796 7.08974031747445
S 717.9705641595998 543.1918572030447 717.9705641595998 518.5090575792448
s 6.039408418589345 -7.08974031747445 13.129148736063796 -7.08974031747445
S 744.2288616317275 493.8262579554448 744.2288616317275 518.5090575792448
z" fill="none" stroke="none"></path>
<circle cx="0" cy="0" r="4.30975683516912" fill="#54c0fc" opacity="0.9">
  <animateMotion begin="-8.046480547971518s" dur="10s" repeatCount="indefinite">
    <mpath xlink:href="#path0"></mpath>
  </animateMotion>
</circle><path id="path1" d="M 629.3857699657311 292.5264464152024
c 0 35.013957059801285 -8.567244812504569 10.057200432070582 -18.624445244575153 10.057200432070582
S 592.1368794765809 327.54040347500364 592.1368794765809 292.5264464152024
s 8.567244812504569 -10.057200432070582 18.624445244575153 -10.057200432070582
S 629.3857699657311 257.5124893554011 629.3857699657311 292.5264464152024
z" fill="none" stroke="none"></path>
<circle cx="0" cy="0" r="4.06744879127905" fill="#54c0fc" opacity="0.9">
  <animateMotion begin="-0.5882062994791393s" dur="10s" repeatCount="indefinite">
    <mpath xlink:href="#path1"></mpath>
  </animateMotion>
</circle><path id="path2" d="M 258.8704109526161 74.72795810174256
c 0 32.29974322277419 -7.903128660891555 9.277585819307479 -17.180714480199036 9.277585819307479
S 224.50898199221805 107.02770132451676 224.50898199221805 74.72795810174256
s 7.903128660891555 -9.277585819307479 17.180714480199036 -9.277585819307479
S 258.8704109526161 42.42821487896837 258.8704109526161 74.72795810174256
z" fill="none" stroke="none"></path>
<circle cx="0" cy="0" r="3.54774326821283" fill="#89d5ff" opacity="0.9">
  <animateMotion begin="-1.0660256988826466s" dur="10s" repeatCount="indefinite">
    <mpath xlink:href="#path2"></mpath>
  </animateMotion>
</circle><path id="path3" d="M 223.4513363535754 719.3432275887415
c 0 23.352106354799346 -5.713813257025371 6.707519910421089 -12.421333167446459 6.707519910421089
S 198.60867001868252 742.6953339435408 198.60867001868252 719.3432275887415
s 5.713813257025371 -6.707519910421089 12.421333167446459 -6.707519910421089
S 223.4513363535754 695.9911212339421 223.4513363535754 719.3432275887415
z" fill="none" stroke="none"></path>
<circle cx="0" cy="0" r="2.472310307950604" fill="#54c0fc" opacity="0.9">
  <animateMotion begin="-6.261361147680837s" dur="10s" repeatCount="indefinite">
    <mpath xlink:href="#path3"></mpath>
  </animateMotion>
</circle><path id="path4" d="M 182.3733047501375 641.7000703235606
c 0 28.820407817034273 -7.051801912678598 8.278202245318354 -15.330004157996953 8.278202245318354
S 151.71329643414361 670.5204781405948 151.71329643414361 641.7000703235606
s 7.051801912678598 -8.278202245318354 15.330004157996953 -8.278202245318354
S 182.3733047501375 612.8796625065263 182.3733047501375 641.7000703235606
z" fill="none" stroke="none"></path>
<circle cx="0" cy="0" r="2.951483108549257" fill="#54c0fc" opacity="0.9">
  <animateMotion begin="-5.022226924229676s" dur="10s" repeatCount="indefinite">
    <mpath xlink:href="#path4"></mpath>
  </animateMotion>
</circle><path id="path5" d="M 251.8693964167069 755.5080645692826
c 0 28.517937097186774 -6.9777931195244225 8.191322357702584 -15.169115477227006 8.191322357702584
S 221.53116546225291 784.0260016664694 221.53116546225291 755.5080645692826
s 6.9777931195244225 -8.191322357702584 15.169115477227006 -8.191322357702584
S 251.8693964167069 726.9901274720959 251.8693964167069 755.5080645692826
z" fill="none" stroke="none"></path>
<circle cx="0" cy="0" r="3.4855733974438707" fill="#89d5ff" opacity="0.9">
  <animateMotion begin="-6.289578022050746s" dur="10s" repeatCount="indefinite">
    <mpath xlink:href="#path5"></mpath>
  </animateMotion>
</circle><path id="path6" d="M 738.1958537114874 108.13717596541179
c 0 29.689238200067148 -7.264388070229195 8.527759908529926 -15.792147978759122 8.527759908529926
S 706.6115577539692 137.82641416547892 706.6115577539692 108.13717596541179
s 7.264388070229195 -8.527759908529926 15.792147978759122 -8.527759908529926
S 738.1958537114874 78.44793776534463 738.1958537114874 108.13717596541179
z" fill="none" stroke="none"></path>
<circle cx="0" cy="0" r="3.9127974626665876" fill="#89d5ff" opacity="0.9">
  <animateMotion begin="-3.095958330893913s" dur="10s" repeatCount="indefinite">
    <mpath xlink:href="#path6"></mpath>
  </animateMotion>
</circle><path id="path7" d="M 167.24597767545288 300.2063322366815
c 0 37.151195468517415 -9.090186125275537 10.671088060106067 -19.761274185381602 10.671088060106067
S 127.72342930468966 337.3575277051989 127.72342930468966 300.2063322366815
s 9.090186125275537 -10.671088060106067 19.761274185381602 -10.671088060106067
S 167.24597767545288 263.05513676816406 167.24597767545288 300.2063322366815
z" fill="none" stroke="none"></path>
<circle cx="0" cy="0" r="3.7943694081016774" fill="#89d5ff" opacity="0.9">
  <animateMotion begin="-6.773344081174331s" dur="10s" repeatCount="indefinite">
    <mpath xlink:href="#path7"></mpath>
  </animateMotion>
</circle><path id="path8" d="M 528.6647978135892 382.94623763910425
c 0 28.148193929092965 -6.887324046480193 8.085119532824576 -14.972443579304768 8.085119532824576
S 498.7199106549796 411.0944315681972 498.7199106549796 382.94623763910425
s 6.887324046480193 -8.085119532824576 14.972443579304768 -8.085119532824576
S 528.6647978135892 354.7980437100113 528.6647978135892 382.94623763910425
z" fill="none" stroke="none"></path>
<circle cx="0" cy="0" r="3.370080987634506" fill="#89d5ff" opacity="0.9">
  <animateMotion begin="-5.729677361184082s" dur="10s" repeatCount="indefinite">
    <mpath xlink:href="#path8"></mpath>
  </animateMotion>
</circle><path id="path9" d="M 419.54344739006336 240.8240029283672
c 0 24.368643064689724 -5.962540324338975 6.999503859006623 -12.962044183345597 6.999503859006623
S 393.61935902337217 265.19264599305694 393.61935902337217 240.8240029283672
s 5.962540324338975 -6.999503859006623 12.962044183345597 -6.999503859006623
S 419.54344739006336 216.45535986367747 419.54344739006336 240.8240029283672
z" fill="none" stroke="none"></path>
<circle cx="0" cy="0" r="4.06408541643014" fill="#89d5ff" opacity="0.9">
  <animateMotion begin="-6.459232174127447s" dur="10s" repeatCount="indefinite">
    <mpath xlink:href="#path9"></mpath>
  </animateMotion>
</circle><path id="path10" d="M 319.9103966672478 781.7648591282085
c 0 35.56206775989943 -8.701357005081775 10.214636484226432 -18.915993489308207 10.214636484226432
S 282.0784096886314 817.3269268881079 282.0784096886314 781.7648591282085
s 8.701357005081775 -10.214636484226432 18.915993489308207 -10.214636484226432
S 319.9103966672478 746.2027913683091 319.9103966672478 781.7648591282085
z" fill="none" stroke="none"></path>
<circle cx="0" cy="0" r="2.549654052158926" fill="#89d5ff" opacity="0.9">
  <animateMotion begin="-9.812929886612887s" dur="10s" repeatCount="indefinite">
    <mpath xlink:href="#path10"></mpath>
  </animateMotion>
</circle><path id="path11" d="M 1484.2107142266968 690.8661932052365
c 0 23.29382304741418 -5.699552447771554 6.690778960427477 -12.390331408199032 6.690778960427477
S 1459.4300514102988 714.1600162526507 1459.4300514102988 690.8661932052365
s 5.699552447771554 -6.690778960427477 12.390331408199032 -6.690778960427477
S 1484.2107142266968 667.5723701578223 1484.2107142266968 690.8661932052365
z" fill="none" stroke="none"></path>
<circle cx="0" cy="0" r="3.8869546254655787" fill="#54c0fc" opacity="0.9">
  <animateMotion begin="-6.0671657986899845s" dur="10s" repeatCount="indefinite">
    <mpath xlink:href="#path11"></mpath>
  </animateMotion>
</circle><path id="path12" d="M 850.1368006861262 311.86598742438815
c 0 27.90503748784359 -6.8278283214936435 8.01527672523167 -14.843105046725313 8.01527672523167
S 820.4505905926756 339.7710249122317 820.4505905926756 311.86598742438815
s 6.8278283214936435 -8.01527672523167 14.843105046725313 -8.01527672523167
S 850.1368006861262 283.9609499365446 850.1368006861262 311.86598742438815
z" fill="none" stroke="none"></path>
<circle cx="0" cy="0" r="3.682692131594647" fill="#89d5ff" opacity="0.9">
  <animateMotion begin="-8.780444931169828s" dur="10s" repeatCount="indefinite">
    <mpath xlink:href="#path12"></mpath>
  </animateMotion>
</circle><path id="path13" d="M 633.0809561080699 595.6909866699941
c 0 31.440612358492228 -7.692915789843842 9.030814188077555 -16.723729977921398 9.030814188077555
S 599.6334961522272 627.1315990284863 599.6334961522272 595.6909866699941
s 7.692915789843842 -9.030814188077555 16.723729977921398 -9.030814188077555
S 633.0809561080699 564.2503743115019 633.0809561080699 595.6909866699941
z" fill="none" stroke="none"></path>
<circle cx="0" cy="0" r="2.7776377595029933" fill="#89d5ff" opacity="0.9">
  <animateMotion begin="-4.271607151164652s" dur="10s" repeatCount="indefinite">
    <mpath xlink:href="#path13"></mpath>
  </animateMotion>
</circle><path id="path14" d="M 807.3757864424464 297.9306696816846
c 0 36.03161899571128 -8.81624720107829 10.349507583874516 -19.165754784952806 10.349507583874516
S 769.0442768725408 333.96228867739586 769.0442768725408 297.9306696816846
s 8.81624720107829 -10.349507583874516 19.165754784952806 -10.349507583874516
S 807.3757864424464 261.89905068597335 807.3757864424464 297.9306696816846
z" fill="none" stroke="none"></path>
<circle cx="0" cy="0" r="3.6759525157167126" fill="#89d5ff" opacity="0.9">
  <animateMotion begin="-6.576570622244211s" dur="10s" repeatCount="indefinite">
    <mpath xlink:href="#path14"></mpath>
  </animateMotion>
</circle><path id="path15" d="M 644.4669573464963 188.3992762832064
c 0 37.02591832504353 -9.059533207191501 10.635104199746547 -19.694637406938046 10.635104199746547
S 605.0776825326203 225.42519460824994 605.0776825326203 188.3992762832064
s 9.059533207191501 -10.635104199746547 19.694637406938046 -10.635104199746547
S 644.4669573464963 151.37335795816287 644.4669573464963 188.3992762832064
z" fill="none" stroke="none"></path>
<circle cx="0" cy="0" r="3.1699321506638234" fill="#89d5ff" opacity="0.9">
  <animateMotion begin="-5.3271041634185785s" dur="10s" repeatCount="indefinite">
    <mpath xlink:href="#path15"></mpath>
  </animateMotion>
</circle><path id="path16" d="M 212.59203828436796 751.1121227558824
c 0 26.533988336997417 -6.492358848414261 7.621464735095003 -14.113823583509264 7.621464735095003
S 184.36439111734944 777.6461110928798 184.36439111734944 751.1121227558824
s 6.492358848414261 -7.621464735095003 14.113823583509264 -7.621464735095003
S 212.59203828436796 724.578134418885 212.59203828436796 751.1121227558824
z" fill="none" stroke="none"></path>
<circle cx="0" cy="0" r="3.7361794045701977" fill="#54c0fc" opacity="0.9">
  <animateMotion begin="-5.723041622827692s" dur="10s" repeatCount="indefinite">
    <mpath xlink:href="#path16"></mpath>
  </animateMotion>
</circle><path id="path17" d="M 998.9991704050339 654.0447236300271
c 0 32.571216807670794 -7.969553048685405 9.355562274543738 -17.32511532322914 9.355562274543738
S 964.3489397585755 686.6159404376979 964.3489397585755 654.0447236300271
s 7.969553048685405 -9.355562274543738 17.32511532322914 -9.355562274543738
S 998.9991704050339 621.4735068223563 998.9991704050339 654.0447236300271
z" fill="none" stroke="none"></path>
<circle cx="0" cy="0" r="3.52847313776677" fill="#54c0fc" opacity="0.9">
  <animateMotion begin="-1.71223539437799s" dur="10s" repeatCount="indefinite">
    <mpath xlink:href="#path17"></mpath>
  </animateMotion>
</circle><path id="path18" d="M 613.2830237505193 374.0934587628379
c 0 29.100831563535046 -7.120416233630914 8.358749491653684 -15.479165725284599 8.358749491653684
S 582.3246922999501 403.19429032637294 582.3246922999501 374.0934587628379
s 7.120416233630914 -8.358749491653684 15.479165725284599 -8.358749491653684
S 613.2830237505193 344.99262719930283 613.2830237505193 374.0934587628379
z" fill="none" stroke="none"></path>
<circle cx="0" cy="0" r="4.054429023648789" fill="#89d5ff" opacity="0.9">
  <animateMotion begin="-6.338488721379023s" dur="10s" repeatCount="indefinite">
    <mpath xlink:href="#path18"></mpath>
  </animateMotion>
</circle><path id="path19" d="M 1051.7779943815729 245.69685440586645
c 0 22.50550732550418 -5.506666686027618 6.46434784881503 -11.971014534842649 6.46434784881503
S 1027.8359653118875 268.2023617313706 1027.8359653118875 245.69685440586645
s 5.506666686027618 -6.46434784881503 11.971014534842649 -6.46434784881503
S 1051.7779943815729 223.19134708036228 1051.7779943815729 245.69685440586645
z" fill="none" stroke="none"></path>
<circle cx="0" cy="0" r="3.2034809412420255" fill="#89d5ff" opacity="0.9">
  <animateMotion begin="-9.36298496009348s" dur="10s" repeatCount="indefinite">
    <mpath xlink:href="#path19"></mpath>
  </animateMotion>
</circle><path id="path20" d="M 1063.166542750916 384.43900972402867
c 0 34.61934536543554 -8.47069088728742 9.943854519859146 -18.414545407146566 9.943854519859146
S 1026.337451936623 419.0583550894642 1026.337451936623 384.43900972402867
s 8.47069088728742 -9.943854519859146 18.414545407146566 -9.943854519859146
S 1063.166542750916 349.8196643585931 1063.166542750916 384.43900972402867
z" fill="none" stroke="none"></path>
<circle cx="0" cy="0" r="4.4152442881858205" fill="#54c0fc" opacity="0.9">
  <animateMotion begin="-4.999733781356699s" dur="10s" repeatCount="indefinite">
    <mpath xlink:href="#path20"></mpath>
  </animateMotion>
</circle><path id="path21" d="M 507.6074589123316 266.1174861108447
c 0 32.31937264730119 -7.907931605190716 9.283224058267363 -17.19115566345808 9.283224058267363
S 473.22514758541547 298.4368587581459 473.22514758541547 266.1174861108447
s 7.907931605190716 -9.283224058267363 17.19115566345808 -9.283224058267363
S 507.6074589123316 233.79811346354353 507.6074589123316 266.1174861108447
z" fill="none" stroke="none"></path>
<circle cx="0" cy="0" r="2.670738307685453" fill="#89d5ff" opacity="0.9">
  <animateMotion begin="-1.287758521283242s" dur="10s" repeatCount="indefinite">
    <mpath xlink:href="#path21"></mpath>
  </animateMotion>
</circle><path id="path22" d="M 1335.57073028719 728.2202918642985
c 0 37.14570880652008 -9.088843644148527 10.669512104000447 -19.758355748148976 10.669512104000447
S 1296.054018790892 765.3660006708185 1296.054018790892 728.2202918642985
s 9.088843644148527 -10.669512104000447 19.758355748148976 -10.669512104000447
S 1335.57073028719 691.0745830577785 1335.57073028719 728.2202918642985
z" fill="none" stroke="none"></path>
<circle cx="0" cy="0" r="4.306690075387095" fill="#54c0fc" opacity="0.9">
  <animateMotion begin="-4.875598307108753s" dur="10s" repeatCount="indefinite">
    <mpath xlink:href="#path22"></mpath>
  </animateMotion>
</circle><path id="path23" d="M 781.6709918580646 437.906642326219
c 0 21.680066517300407 -5.304697126573503 6.227253148586287 -11.53195027515979 6.227253148586287
S 758.6070913077449 459.58670884351943 758.6070913077449 437.906642326219
s 5.304697126573503 -6.227253148586287 11.53195027515979 -6.227253148586287
S 781.6709918580646 416.2265758089186 781.6709918580646 437.906642326219
z" fill="none" stroke="none"></path>
<circle cx="0" cy="0" r="3.149565435324096" fill="#89d5ff" opacity="0.9">
  <animateMotion begin="-3.759339366574239s" dur="10s" repeatCount="indefinite">
    <mpath xlink:href="#path23"></mpath>
  </animateMotion>
</circle><path id="path24" d="M 1055.768684640795 417.1774324528826
c 0 21.74559284329033 -5.320730163783803 6.24607454009403 -11.566804703877834 6.24607454009403
S 1032.6350752330395 438.92302529617297 1032.6350752330395 417.1774324528826
s 5.320730163783803 -6.24607454009403 11.566804703877834 -6.24607454009403
S 1055.768684640795 395.43183960959226 1055.768684640795 417.1774324528826
z" fill="none" stroke="none"></path>
<circle cx="0" cy="0" r="2.984292062600348" fill="#89d5ff" opacity="0.9">
  <animateMotion begin="-4.431347066245852s" dur="10s" repeatCount="indefinite">
    <mpath xlink:href="#path24"></mpath>
  </animateMotion>
</circle><path id="path25" d="M 281.1367378497266 110.8944010307492
c 0 25.58226860902462 -6.259491255399641 7.348098430251753 -13.607589685651394 7.348098430251753
S 253.9215584784238 136.4766696397738 253.9215584784238 110.8944010307492
s 6.259491255399641 -7.348098430251753 13.607589685651394 -7.348098430251753
S 281.1367378497266 85.31213242172457 281.1367378497266 110.8944010307492
z" fill="none" stroke="none"></path>
<circle cx="0" cy="0" r="3.2750249607813613" fill="#54c0fc" opacity="0.9">
  <animateMotion begin="-2.1170320785309094s" dur="10s" repeatCount="indefinite">
    <mpath xlink:href="#path25"></mpath>
  </animateMotion>
</circle><path id="path26" d="M 94.87475745864788 516.824575871726
c 0 33.198399581564885 -8.123012663574386 9.535710518109063 -17.65872318168345 9.535710518109063
S 59.55731109528099 550.0229754532909 59.55731109528099 516.824575871726
s 8.123012663574386 -9.535710518109063 17.65872318168345 -9.535710518109063
S 94.87475745864788 483.6261762901611 94.87475745864788 516.824575871726
z" fill="none" stroke="none"></path>
<circle cx="0" cy="0" r="2.5247710493984843" fill="#54c0fc" opacity="0.9">
  <animateMotion begin="-9.392396637914725s" dur="10s" repeatCount="indefinite">
    <mpath xlink:href="#path26"></mpath>
  </animateMotion>
</circle><path id="path27" d="M 506.1602282210131 389.7416221971083
c 0 22.717510031581853 -5.558539688578538 6.5252422431139365 -12.083781931692474 6.5252422431139365
S 481.9926643576281 412.4591322286902 481.9926643576281 389.7416221971083
s 5.558539688578538 -6.5252422431139365 12.083781931692474 -6.5252422431139365
S 506.1602282210131 367.02411216552645 506.1602282210131 389.7416221971083
z" fill="none" stroke="none"></path>
<circle cx="0" cy="0" r="4.293673149507728" fill="#54c0fc" opacity="0.9">
  <animateMotion begin="-0.6318881928469766s" dur="10s" repeatCount="indefinite">
    <mpath xlink:href="#path27"></mpath>
  </animateMotion>
</circle><path id="path28" d="M 126.91852181016051 646.6135540399304
c 0 27.832478214531875 -6.81007445674716 7.9944352318336245 -14.804509688580785 7.9944352318336245
S 97.30950243299895 674.4460322544622 97.30950243299895 646.6135540399304
s 6.81007445674716 -7.9944352318336245 14.804509688580785 -7.9944352318336245
S 126.91852181016051 618.7810758253985 126.91852181016051 646.6135540399304
z" fill="none" stroke="none"></path>
<circle cx="0" cy="0" r="3.547088845449742" fill="#89d5ff" opacity="0.9">
  <animateMotion begin="-9.869450612535527s" dur="10s" repeatCount="indefinite">
    <mpath xlink:href="#path28"></mpath>
  </animateMotion>
</circle><path id="path29" d="M 1156.298390324761 170.7393695991612
c 0 29.45534701015691 -7.2071593748256255 8.460578396534432 -15.667737771360057 8.460578396534432
S 1124.962914782041 200.1947166093181 1124.962914782041 170.7393695991612
s 7.2071593748256255 -8.460578396534432 15.667737771360057 -8.460578396534432
S 1156.298390324761 141.28402258900428 1156.298390324761 170.7393695991612
z" fill="none" stroke="none"></path>
<circle cx="0" cy="0" r="3.5098235544785465" fill="#54c0fc" opacity="0.9">
  <animateMotion begin="-1.743127873178425s" dur="10s" repeatCount="indefinite">
    <mpath xlink:href="#path29"></mpath>
  </animateMotion>
</circle></g>
</svg>