<svg xmlns="http://www.w3.org/2000/svg" version="1.1" xmlns:xlink="http://www.w3.org/1999/xlink" width="512" height="512" x="0" y="0" viewBox="0 0 479.979 479.979" style="enable-background:new 0 0 512 512" xml:space="preserve" class=""><g><path fill="#cbe3fa" d="M213.989 300.742V43.079c0-14.092-9.201-26.565-22.696-30.625-19.745-5.941-40.564-5.965-60.344-.085-13.6 4.04-22.96 16.51-22.96 30.7v257.673a7.991 7.991 0 0 1-3.117 6.328c-21.389 16.492-35.322 42.186-35.866 71.148-.953 50.748 39.964 93.07 90.716 93.753 51.391.692 93.267-40.76 93.267-91.991 0-29.67-14.053-56.066-35.862-72.893a8.02 8.02 0 0 1-3.138-6.345z" opacity="1" data-original="#cbe3fa" class=""></path><path fill="#ff6d7a" d="M160.99 331.979c26.51 0 47.999 21.49 47.999 48s-21.49 48-48 48-48-21.491-48-48.001 21.491-47.999 48.001-47.999z" opacity="1" data-original="#ff6d7a" class=""></path><path fill="#ff8c95" d="M168.017 359.035c-12.708 4.956-23.016 15.263-27.972 27.971-5.396 13.835-26.079 10.717-26.968-4.106-1.725-28.741 21.995-52.565 50.835-50.833 14.822.889 17.939 21.572 4.105 26.968z" opacity="1" data-original="#ff8c95"></path><path fill="#eef7ff" d="M150.714 8.548c12.226-1.269 15.577 16.222 3.776 19.662-14.767 4.304-23.501 17.206-23.501 30.859v257.67a8.019 8.019 0 0 1-3.146 6.35c-11.113 8.554-19.684 19.093-25.655 30.698-8.23 15.996-32.508 4.736-25.146-11.678 5.928-13.218 15.168-25.318 27.813-35.032a7.99 7.99 0 0 0 3.133-6.336V43.069c0-14.19 9.36-26.66 22.96-30.7 5.836-1.734 12.628-3.08 19.766-3.821z" opacity="1" data-original="#eef7ff"></path><path d="M306.989 127.979h-32a8 8 0 0 0-8 8v112a8 8 0 0 0 16 0v-104h24c13.233 0 24 10.767 24 24s-10.767 24-24 24a8 8 0 0 0 0 16c22.056 0 40-17.944 40-40s-17.944-40-40-40zM392.989 171.979h-14a8 8 0 0 0 0 16h14c5.514 0 10 4.486 10 10v6h-22c-14.337 0-26 11.663-26 26s11.663 26 26 26h30a8 8 0 0 0 8-8v-50c0-14.337-11.663-26-26-26zm10 68h-22c-5.514 0-10-4.486-10-10s4.486-10 10-10h22zM243.476 338.413a7.999 7.999 0 0 0-4.457 10.398c21.956 54.899-18.624 115.167-78.029 115.167-46.317 0-84-37.683-84-84 0-27.254 13.313-52.925 35.614-68.67a8 8 0 0 0 3.386-6.535v-261.7c0-10.546 7.089-20.018 17.238-23.032 18.261-5.426 37.66-5.381 55.773.078 10.002 3.014 16.988 12.453 16.988 22.956v261.699a8 8 0 0 0 16 0V43.075c0-17.781-11.402-33.163-28.372-38.276-21.092-6.355-43.705-6.407-64.946-.096-16.888 5.017-28.682 20.795-28.682 38.37v257.665c-24.497 18.888-39 48.2-39 79.241 0 55.141 44.859 100 100 100 70.682 0 119.044-71.707 92.885-137.108a8 8 0 0 0-10.398-4.458z" fill="#000000" opacity="1" data-original="#000000" class=""></path><path d="M123.702 348.711a7.998 7.998 0 0 0-10.957 2.818 55.956 55.956 0 0 0-7.756 28.449c0 30.879 25.121 56 56 56s56-25.121 56-56c0-28.162-20.898-51.525-48-55.419v-55.452a8 8 0 0 0-16 0v62.871a8 8 0 0 0 8 8c22.056 0 40 17.944 40 40s-17.944 40-40 40c-30.965 0-50.105-33.841-34.469-60.311a7.998 7.998 0 0 0-2.818-10.956zM152.989 228.592a8 8 0 0 0 16 0v-93.613a8 8 0 0 0-16 0zM160.989 103.979a8 8 0 0 0 8-8v-13a8 8 0 0 0-16 0v13a8 8 0 0 0 8 8z" fill="#000000" opacity="1" data-original="#000000" class=""></path></g></svg>