<svg xmlns="http://www.w3.org/2000/svg" version="1.1" xmlns:xlink="http://www.w3.org/1999/xlink" width="512" height="512" x="0" y="0" viewBox="0 0 512 512" style="enable-background:new 0 0 512 512" xml:space="preserve" class=""><g><path fill="#b2e7f1" d="M408.945 25.893c27.12 2.29 53.232 20.443 66.236 49.168 13.277 29.327 9.258 61.651-7.791 83.578M45.154 252.005l69.164-31.28 14.155 31.3-69.164 31.28z" opacity="1" data-original="#b2e7f1" class=""></path><path fill="#ffe266" d="m12.895 266.29 14.427 31.867c4.029 8.9 14.511 12.849 23.411 8.819 8.9-4.029 12.849-14.511 8.819-23.411l-14.427-31.867c-4.029-8.9-14.511-12.849-23.411-8.82-8.9 4.03-12.849 14.512-8.819 23.412z" opacity="1" data-original="#ffe266" class=""></path><path fill="#8bb6ef" d="m183.13 241.87-65.43 29.622c-7.247 3.281-15.781.066-19.062-7.181l-14.112-31.172c-3.281-7.247-.066-15.781 7.181-19.062l65.43-29.622c7.247-3.281 15.781-.066 19.062 7.181l14.112 31.172c3.281 7.247.066 15.781-7.181 19.062z" opacity="1" data-original="#8bb6ef"></path><path fill="#8bb6ef" d="m183.13 241.87-65.43 29.622c-7.247 3.281-15.781.066-19.062-7.181l-14.112-31.172c-3.281-7.247-.066-15.781 7.181-19.062l65.43-29.622c7.247-3.281 15.781-.066 19.062 7.181l14.112 31.172c3.281 7.247.066 15.781-7.181 19.062z" opacity="1" data-original="#8bb6ef"></path><path fill="#8388ef" d="m190.311 222.809-14.112-31.172c-1.576-3.481-4.369-6.018-7.644-7.366l6.097 13.468c3.281 7.247.066 15.781-7.181 19.062l-65.43 29.622c-3.766 1.705-7.874 1.642-11.418.185l8.015 17.703c3.281 7.246 11.815 10.461 19.062 7.181l65.43-29.622c7.247-3.281 10.462-11.815 7.181-19.061z" opacity="1" data-original="#8388ef" class=""></path><path fill="#b2e7f1" d="m329.35 204.807-117.535 53.211c-7.964 3.605-17.342.072-20.947-7.891l-34.829-76.932c-3.605-7.964-.072-17.342 7.891-20.947l117.535-53.211c7.963-3.605 17.342-.072 20.947 7.891l34.829 76.932c3.605 7.963.072 17.341-7.891 20.947z" opacity="1" data-original="#b2e7f1" class=""></path><path fill="#a7adf1" d="m337.241 183.859-34.829-76.932c-3.605-7.964-12.984-11.497-20.947-7.891l-65.699 29.744a8.899 8.899 0 0 1 11.776 4.436l22.14 48.905a8.898 8.898 0 0 1-4.436 11.776l-58.148 26.326a8.899 8.899 0 0 1-11.776-4.436l-8.166-18.039 23.713 52.378c3.605 7.963 12.983 11.497 20.947 7.891l117.535-53.211c7.962-3.605 11.495-12.983 7.89-20.947z" opacity="1" data-original="#a7adf1"></path><path fill="#8bb6ef" d="m451.139 165.667-138.08 63.115c-9.913 4.488-21.588.09-26.076-9.824l-44.106-97.423c-4.488-9.914-.09-21.588 9.824-26.076l138.08-63.115c9.913-4.488 21.588-.09 26.076 9.823l44.106 97.423c4.488 9.914.09 21.589-9.824 26.077z" opacity="1" data-original="#8bb6ef"></path><path fill="#8388ef" d="m460.963 139.591-44.105-97.423c-4.488-9.913-16.163-14.311-26.076-9.823L344.7 53.407c6.403-1.74 13.435 1.612 16.409 8.179l32.238 71.209c3.281 7.246.374 15.64-6.491 18.748l-95.617 43.729c-6.865 3.108-15.09-.246-18.37-7.492l14.115 31.178c4.488 9.913 16.163 14.312 26.076 9.823l138.08-63.115c9.913-4.487 14.311-16.162 9.823-26.075z" opacity="1" data-original="#8388ef" class=""></path><path fill="#ffe266" d="M464.737 182.522c-8.693 4.151-19.504-.57-23.989-10.477L379.585 36.944c-4.372-9.657-1.085-20.636 7.389-24.683 8.693-4.151 19.504.57 23.989 10.477l61.163 135.1c4.372 9.658 1.085 20.638-7.389 24.684z" opacity="1" data-original="#ffe266" class=""></path><path fill="#cab4ef" d="M132.282 484.347H86.313l143.662-228.72h45.969z" opacity="1" data-original="#cab4ef"></path><path fill="#cab4ef" d="M371.968 484.347h45.969L275.11 255.458h-45.969z" opacity="1" data-original="#cab4ef"></path><g fill="#ffe266"><path d="M135.472 501.515h-37.56c-10.928 0-19.788-8.859-19.788-19.788 0-10.928 8.859-19.788 19.788-19.788h37.561c10.928 0 19.788 8.859 19.788 19.788-.001 10.929-8.86 19.788-19.789 19.788zM368.778 501.515h37.561c10.928 0 19.788-8.859 19.788-19.788 0-10.928-8.859-19.788-19.788-19.788h-37.561c-10.928 0-19.788 8.859-19.788 19.788.001 10.929 8.86 19.788 19.788 19.788z" fill="#ffe266" opacity="1" data-original="#ffe266" class=""></path><circle cx="252.125" cy="255.627" r="39.408" fill="#ffe266" opacity="1" data-original="#ffe266" class=""></circle></g><path fill="#be87ef" d="m310.811 312.671-32.866 20.998-21.521-34.488 31.385-22.098zM195.59 312.671l32.866 20.998 21.52-34.488-31.385-22.098z" opacity="1" data-original="#be87ef"></path><g fill="#440a29"><path d="M329.35 204.806h.01zM484.733 70.736c-12.724-28.104-37.051-48.012-64.947-53.822-3.597-6.963-9.603-12.367-16.694-14.956-6.9-2.519-14.228-2.22-20.638.841-10.825 5.169-16.506 16.734-15.129 28.737l-118.949 54.37c-10.168 4.604-16.544 14.179-17.579 24.56l-71.191 32.229c-6.403 2.898-11.294 8.117-13.772 14.694-2.478 6.578-2.247 13.727.652 20.129l.094.207-59.197 26.8c-9.433 4.271-14.913 13.729-14.608 23.486l-24.02 10.874a28.096 28.096 0 0 0-9.812-6.258c-7.044-2.653-14.697-2.405-21.553.699-14.153 6.407-20.456 23.135-14.049 37.287h.001l14.426 31.866c3.105 6.856 8.692 12.093 15.735 14.746 7.032 2.651 14.689 2.408 21.552-.699 6.856-3.104 12.093-8.692 14.746-15.734a28.101 28.101 0 0 0 1.772-11.503l24.897-11.271c7.141 5.617 17.273 6.872 25.552 3.025l59.198-26.8.093.206c4.248 9.381 13.349 15.052 23.001 15.424a49.357 49.357 0 0 0 1.553 4.419L94.465 451.656c-15.074 1.718-26.826 14.545-26.826 30.071 0 16.693 13.58 30.273 30.273 30.273h37.561c16.692 0 30.272-13.58 30.272-30.272 0-7.438-2.702-14.254-7.169-19.531l93.913-149.516L345.74 462.12c-4.506 5.287-7.235 12.132-7.235 19.607 0 16.692 13.581 30.272 30.273 30.272h37.56c16.693 0 30.272-13.58 30.272-30.272 0-15.485-11.688-28.284-26.704-30.056l-111.2-178.203a49.618 49.618 0 0 0 3.311-17.842c0-5.247-.819-10.305-2.328-15.06 1.739.31 3.493.468 5.247.468 4.244 0 8.483-.908 12.481-2.718l118.688-54.25c3.398 3.951 7.704 7.003 12.512 8.758 3.097 1.131 6.28 1.694 9.428 1.694 3.865 0 7.677-.848 11.208-2.535h.001c13.303-6.353 18.843-22.362 13.054-36.977 13.825-24.652 15.007-56.48 2.425-84.27zm-19.104 8.649c7.233 15.978 8.72 33.555 4.788 49.255l-38.698-85.477c14.442 7.338 26.578 20.026 33.91 36.222zM59.13 257.208l20.567-9.311 5.521 12.196-20.567 9.311zm-8.952 36.193a7.155 7.155 0 0 1-3.77 4.023 7.167 7.167 0 0 1-5.511.179 7.158 7.158 0 0 1-4.024-3.771l-14.427-31.867h.001c-1.638-3.619-.027-7.896 3.592-9.535a7.21 7.21 0 0 1 9.534 3.592l.125.276.003.008 14.17 31.3.128.282a7.153 7.153 0 0 1 .179 5.513zm63.198-31.461c-1.288.583-2.431.311-2.998.097s-1.605-.764-2.187-2.05l-14.112-31.172a3.923 3.923 0 0 1 1.953-5.186l59.198-26.8 17.344 38.311zm87.044-16.138-34.83-76.932a5.327 5.327 0 0 1-.132-4.087 5.317 5.317 0 0 1 2.796-2.984l67.506-30.562 35.447 78.296a49.617 49.617 0 0 0-19.082-3.8c-25.018 0-45.789 18.511-49.349 42.554a5.276 5.276 0 0 1-2.356-2.485zm168.359 205.652c-1.614 0-3.197.13-4.743.374l-93.502-149.842a50.02 50.02 0 0 0 15.271-9.584l99.25 159.053h-16.276zm-233.306 0h-16.118l99.612-158.588a49.973 49.973 0 0 0 15.331 9.35l-93.985 149.63a30.405 30.405 0 0 0-4.84-.392zm145.575-195.827c0 15.948-12.975 28.923-28.923 28.923s-28.922-12.975-28.922-28.923 12.974-28.923 28.922-28.923 28.923 12.975 28.923 28.923zM135.473 491.03H97.912c-5.129 0-9.303-4.173-9.303-9.302s4.174-9.303 9.303-9.303h37.561c5.129 0 9.302 4.173 9.302 9.303-.001 5.128-4.174 9.302-9.302 9.302zm270.866 0h-37.56c-5.129 0-9.303-4.173-9.303-9.302s4.174-9.303 9.303-9.303h37.56c5.129 0 9.302 4.173 9.302 9.303 0 5.128-4.173 9.302-9.302 9.302zm-97.604-271.801a9.157 9.157 0 0 1-7.052.229 9.153 9.153 0 0 1-5.147-4.825l-44.105-97.423c-2.097-4.631-.036-10.104 4.629-12.216l117.507-53.71 51.71 114.219zM460.22 173.06c-1.646.785-3.304.469-4.408.066-2.333-.852-4.342-2.822-5.511-5.406l-61.165-135.1c-1.971-4.355-.893-9.345 2.355-10.896 1.404-.699 3.125-.555 4.408-.067 2.333.852 4.342 2.822 5.511 5.407l61.165 135.101c1.971 4.354.893 9.344-2.355 10.895z" fill="#440a29" opacity="1" data-original="#440a29" class=""></path><circle cx="252.125" cy="255.627" r="12.628" transform="rotate(-80.8 252.077 255.655)" fill="#440a29" opacity="1" data-original="#440a29" class=""></circle></g><path fill="#ffffff" d="M338.045 106.752a10.487 10.487 0 0 1-9.499-6.033c-2.461-5.242-.206-11.486 5.037-13.947l2.811-1.319c5.241-2.464 11.486-.206 13.947 5.036s.206 11.486-5.037 13.947c-2.147 1.035-4.867 2.453-7.259 2.316zM286.8 130.806c-3.939 0-7.713-2.23-9.498-6.032-2.462-5.242-.207-11.486 5.035-13.947l23.745-11.146c5.241-2.461 11.487-.206 13.947 5.036s.206 11.486-5.037 13.947l-23.743 11.146c-1.44.676-2.957.996-4.449.996z" opacity="1" data-original="#ffffff"></path><circle cx="97.571" cy="30.586" r="19.447" fill="#8bb6ef" transform="rotate(-76.7 97.599 30.591)" opacity="1" data-original="#8bb6ef"></circle><path fill="#8bb6ef" d="M511.164 8.236A8.236 8.236 0 1 1 502.929 0a8.235 8.235 0 0 1 8.235 8.236z" opacity="1" data-original="#8bb6ef"></path><g fill="#b2e7f1"><path d="m192.362 22.264 6.607 18.576c.283.795.843 1.425 1.549 1.744l16.504 7.436c2.331 1.051 2.331 4.766 0 5.816l-16.504 7.436c-.707.318-1.267.948-1.549 1.744l-6.607 18.576c-.933 2.624-4.234 2.624-5.167 0l-6.607-18.576c-.283-.795-.843-1.426-1.549-1.744l-16.504-7.436c-2.332-1.05-2.332-4.766 0-5.816l16.504-7.436c.707-.319 1.267-.949 1.549-1.744l6.607-18.576c.933-2.625 4.233-2.625 5.167 0zM55.79 94.92l9.078 25.042c.389 1.072 1.158 1.922 2.129 2.351l22.678 10.024c3.204 1.416 3.204 6.424 0 7.841l-22.678 10.024c-.971.429-1.74 1.279-2.129 2.351l-9.078 25.042c-1.283 3.538-5.818 3.538-7.101 0l-9.078-25.042c-.389-1.072-1.158-1.922-2.129-2.351l-22.678-10.024c-3.204-1.416-3.204-6.424 0-7.841l22.678-10.024c.971-.429 1.74-1.279 2.129-2.351L48.69 94.92c1.282-3.538 5.818-3.538 7.1 0z" fill="#b2e7f1" opacity="1" data-original="#b2e7f1" class=""></path></g></g></svg>